<?xml version="1.0" encoding="UTF-8" standalone="no"?>
<!DOCTYPE svg PUBLIC "-//W3C//DTD SVG 1.1//EN"
 "http://www.w3.org/Graphics/SVG/1.1/DTD/svg11.dtd">
<!-- Generated by graphviz version 3.0.0 (20220226.1711)
 -->
<!-- Title: G Pages: 1 -->
<svg width="947pt" height="1340pt"
 viewBox="0.00 0.00 947.00 1340.00" xmlns="http://www.w3.org/2000/svg" xmlns:xlink="http://www.w3.org/1999/xlink">
<g id="graph0" class="graph" transform="scale(1 1) rotate(0) translate(4 1336)">
<title>G</title>
<polygon fill="white" stroke="transparent" points="-4,4 -4,-1336 943,-1336 943,4 -4,4"/>
<text text-anchor="middle" x="469.5" y="-6.4" font-family="Verdana" font-size="7.00" fill="#000000" fill-opacity="0.498039">Generated by Python Call Graph v1.1.3</text>
<g id="clust3" class="cluster">
<title>cluster_InterpolationYieldCurveRate</title>
<polygon fill="none" stroke="#000000" stroke-width="2" stroke-opacity="0.800000" points="311,-987 311,-1094 621,-1094 621,-987 311,-987"/>
<text text-anchor="middle" x="466" y="-1082" font-family="Verdana" font-size="10.00">InterpolationYieldCurveRate</text>
</g>
<g id="clust1" class="cluster">
<title>cluster___main__</title>
<polygon fill="none" stroke="#000000" stroke-width="2" stroke-opacity="0.800000" points="417,-1253 417,-1324 515,-1324 515,-1253 417,-1253"/>
<text text-anchor="middle" x="466" y="-1312" font-family="Verdana" font-size="10.00">__main__</text>
</g>
<g id="clust5" class="cluster">
<title>cluster_YieldCurveTermRate</title>
<polygon fill="none" stroke="#000000" stroke-width="2" stroke-opacity="0.800000" points="8,-511 8,-594 322,-594 322,-511 8,-511"/>
<text text-anchor="middle" x="165" y="-582" font-family="Verdana" font-size="10.00">YieldCurveTermRate</text>
</g>
<g id="clust10" class="cluster">
<title>cluster_forward_yield_curve</title>
<polygon fill="none" stroke="#000000" stroke-width="2" stroke-opacity="0.800000" points="330,-507 330,-711 931,-711 931,-507 330,-507"/>
<text text-anchor="middle" x="630.5" y="-699" font-family="Verdana" font-size="10.00">forward_yield_curve</text>
</g>
<g id="clust11" class="cluster">
<title>cluster_InterpolationMethod</title>
<polygon fill="none" stroke="#000000" stroke-width="2" stroke-opacity="0.800000" points="473,-870 473,-945 751,-945 751,-870 473,-870"/>
<text text-anchor="middle" x="612" y="-933" font-family="Verdana" font-size="10.00">InterpolationMethod</text>
</g>
<g id="clust9" class="cluster">
<title>cluster_ForwardTermRate</title>
<polygon fill="none" stroke="#000000" stroke-width="2" stroke-opacity="0.800000" points="330,-737 330,-828 630,-828 630,-737 330,-737"/>
<text text-anchor="middle" x="480" y="-816" font-family="Verdana" font-size="10.00">ForwardTermRate</text>
</g>
<g id="clust6" class="cluster">
<title>cluster_IRTemplates</title>
<polygon fill="none" stroke="#000000" stroke-width="2" stroke-opacity="0.800000" points="67,-298 67,-481 863,-481 863,-298 67,-298"/>
<text text-anchor="middle" x="465" y="-469" font-family="Verdana" font-size="10.00">IRTemplates</text>
</g>
<g id="clust7" class="cluster">
<title>cluster_curvefamily</title>
<polygon fill="none" stroke="#000000" stroke-width="2" stroke-opacity="0.800000" points="326,-181 326,-272 604,-272 604,-181 326,-181"/>
<text text-anchor="middle" x="465" y="-260" font-family="Verdana" font-size="10.00">curvefamily</text>
</g>
<g id="clust4" class="cluster">
<title>cluster_SmoothYieldCurve</title>
<polygon fill="none" stroke="#000000" stroke-width="2" stroke-opacity="0.800000" points="179,-854 179,-961 465,-961 465,-854 179,-854"/>
<text text-anchor="middle" x="322" y="-949" font-family="Verdana" font-size="10.00">SmoothYieldCurve</text>
</g>
<g id="clust2" class="cluster">
<title>cluster_GetYieldCurve</title>
<polygon fill="none" stroke="#000000" stroke-width="2" stroke-opacity="0.800000" points="311,-1120 311,-1227 621,-1227 621,-1120 311,-1120"/>
<text text-anchor="middle" x="466" y="-1215" font-family="Verdana" font-size="10.00">GetYieldCurve</text>
</g>
<g id="clust8" class="cluster">
<title>cluster_currency</title>
<polygon fill="none" stroke="#000000" stroke-width="2" stroke-opacity="0.800000" points="313,-24 313,-155 617,-155 617,-24 313,-24"/>
<text text-anchor="middle" x="465" y="-143" font-family="Verdana" font-size="10.00">currency</text>
</g>
<!-- __main__ -->
<g id="node1" class="node">
<title>__main__</title>
<polygon fill="#e3e5e5" stroke="#e3e5e5" points="507,-1297 425,-1297 425,-1261 507,-1261 507,-1297"/>
<text text-anchor="middle" x="466" y="-1285.4" font-family="Verdana" font-size="7.00" fill="#000000">__main__</text>
<text text-anchor="middle" x="466" y="-1277.4" font-family="Verdana" font-size="7.00" fill="#000000">calls: 1</text>
<text text-anchor="middle" x="466" y="-1269.4" font-family="Verdana" font-size="7.00" fill="#000000">time: 0.000000s</text>
</g>
<!-- GetYieldCurve -->
<g id="node2" class="node">
<title>GetYieldCurve</title>
<polygon fill="#e54ae1" stroke="#e54ae1" points="612.5,-1200 319.5,-1200 319.5,-1128 612.5,-1128 612.5,-1200"/>
<text text-anchor="middle" x="466" y="-1190.4" font-family="Verdana" font-size="7.00" fill="#000000">GetYieldCurve</text>
<text text-anchor="middle" x="466" y="-1182.4" font-family="Verdana" font-size="7.00" fill="#000000">calls: 1</text>
<text text-anchor="middle" x="466" y="-1174.4" font-family="Verdana" font-size="7.00" fill="#000000">time: 0.006000s</text>
<text text-anchor="middle" x="466" y="-1166.4" font-family="Verdana" font-size="7.00" fill="#000000">input:(entry_data, curve_identification_code, short_rate, long_rate,</text>
<text text-anchor="middle" x="466" y="-1158.4" font-family="Verdana" font-size="7.00" fill="#000000"> model, curve_name, zero_coupon_mode, zero_coupon_basis, future_rate,</text>
<text text-anchor="middle" x="466" y="-1150.4" font-family="Verdana" font-size="7.00" fill="#000000"> spread_type, fam_ref, spread, parametric_data, forward_rate_maturity,</text>
<text text-anchor="middle" x="466" y="-1142.4" font-family="Verdana" font-size="7.00" fill="#000000"> forward_rate, smoothing_between_money_market_to_futures_fras,</text>
<text text-anchor="middle" x="466" y="-1134.4" font-family="Verdana" font-size="7.00" fill="#000000"> smoothing_between_futures_fras_to_swaps)</text>
</g>
<!-- __main__&#45;&gt;GetYieldCurve -->
<g id="edge1" class="edge">
<title>__main__&#45;&gt;GetYieldCurve</title>
<path fill="none" stroke="#b23aaf" d="M466,-1260.84C466,-1247.42 466,-1228.12 466,-1210.36"/>
<polygon fill="#b23aaf" stroke="#b23aaf" points="469.5,-1210.13 466,-1200.13 462.5,-1210.13 469.5,-1210.13"/>
<text text-anchor="middle" x="469" y="-1237.4" font-family="Verdana" font-size="7.00" fill="#000000">1</text>
</g>
<!-- InterpolationYieldCurveRate -->
<g id="node3" class="node">
<title>InterpolationYieldCurveRate</title>
<polygon fill="#bd64e5" stroke="#bd64e5" points="612.5,-1067 319.5,-1067 319.5,-995 612.5,-995 612.5,-1067"/>
<text text-anchor="middle" x="466" y="-1057.4" font-family="Verdana" font-size="7.00" fill="#000000">InterpolationYieldCurveRate</text>
<text text-anchor="middle" x="466" y="-1049.4" font-family="Verdana" font-size="7.00" fill="#000000">calls: 1</text>
<text text-anchor="middle" x="466" y="-1041.4" font-family="Verdana" font-size="7.00" fill="#000000">time: 0.005000s</text>
<text text-anchor="middle" x="466" y="-1033.4" font-family="Verdana" font-size="7.00" fill="#000000">input:(entry_data, curve_identification_code, short_rate, long_rate,</text>
<text text-anchor="middle" x="466" y="-1025.4" font-family="Verdana" font-size="7.00" fill="#000000"> model, curve_name, zero_coupon_mode, zero_coupon_basis, future_rate,</text>
<text text-anchor="middle" x="466" y="-1017.4" font-family="Verdana" font-size="7.00" fill="#000000"> spread_type, fam_ref, spread, parametric_data, forward_rate_maturity,</text>
<text text-anchor="middle" x="466" y="-1009.4" font-family="Verdana" font-size="7.00" fill="#000000"> forward_rate, smoothing_between_money_market_to_futures_fras,</text>
<text text-anchor="middle" x="466" y="-1001.4" font-family="Verdana" font-size="7.00" fill="#000000"> smoothing_between_futures_fras_to_swaps)</text>
</g>
<!-- GetYieldCurve&#45;&gt;InterpolationYieldCurveRate -->
<g id="edge2" class="edge">
<title>GetYieldCurve&#45;&gt;InterpolationYieldCurveRate</title>
<path fill="none" stroke="#934db2" d="M466,-1127.89C466,-1112.33 466,-1093.82 466,-1077.24"/>
<polygon fill="#934db2" stroke="#934db2" points="469.5,-1077.2 466,-1067.2 462.5,-1077.2 469.5,-1077.2"/>
<text text-anchor="middle" x="469" y="-1104.4" font-family="Verdana" font-size="7.00" fill="#000000">1</text>
</g>
<!-- SmoothYieldCurve -->
<g id="node4" class="node">
<title>SmoothYieldCurve</title>
<polygon fill="#bd64e5" stroke="#bd64e5" points="456.5,-934 187.5,-934 187.5,-862 456.5,-862 456.5,-934"/>
<text text-anchor="middle" x="322" y="-924.4" font-family="Verdana" font-size="7.00" fill="#000000">SmoothYieldCurve</text>
<text text-anchor="middle" x="322" y="-916.4" font-family="Verdana" font-size="7.00" fill="#000000">calls: 1</text>
<text text-anchor="middle" x="322" y="-908.4" font-family="Verdana" font-size="7.00" fill="#000000">time: 0.005000s</text>
<text text-anchor="middle" x="322" y="-900.4" font-family="Verdana" font-size="7.00" fill="#000000">input:(entry_data, curve_identification_code, short_rate, long_rate,</text>
<text text-anchor="middle" x="322" y="-892.4" font-family="Verdana" font-size="7.00" fill="#000000"> curve_name, zero_coupon_mode, zero_coupon_basis, future_rate,</text>
<text text-anchor="middle" x="322" y="-884.4" font-family="Verdana" font-size="7.00" fill="#000000"> spread_type, fam_ref, spread, forward_rate_maturity, forward_rate,</text>
<text text-anchor="middle" x="322" y="-876.4" font-family="Verdana" font-size="7.00" fill="#000000"> smoothing_between_money_market_to_futures_fras,</text>
<text text-anchor="middle" x="322" y="-868.4" font-family="Verdana" font-size="7.00" fill="#000000"> smoothing_between_futures_fras_to_swaps)</text>
</g>
<!-- InterpolationYieldCurveRate&#45;&gt;SmoothYieldCurve -->
<g id="edge3" class="edge">
<title>InterpolationYieldCurveRate&#45;&gt;SmoothYieldCurve</title>
<path fill="none" stroke="#934db2" d="M427.41,-994.89C409.17,-978.3 387.26,-958.36 368.14,-940.98"/>
<polygon fill="#934db2" stroke="#934db2" points="370.45,-938.34 360.7,-934.2 365.74,-943.52 370.45,-938.34"/>
<text text-anchor="middle" x="409" y="-971.4" font-family="Verdana" font-size="7.00" fill="#000000">1</text>
</g>
<!-- InterpolationMethod.YieldCurveInterpolation -->
<g id="node17" class="node">
<title>InterpolationMethod.YieldCurveInterpolation</title>
<polygon fill="#e3e5e5" stroke="#e3e5e5" points="742.5,-918 481.5,-918 481.5,-878 742.5,-878 742.5,-918"/>
<text text-anchor="middle" x="612" y="-908.4" font-family="Verdana" font-size="7.00" fill="#000000">InterpolationMethod.YieldCurveInterpolation</text>
<text text-anchor="middle" x="612" y="-900.4" font-family="Verdana" font-size="7.00" fill="#000000">calls: 1</text>
<text text-anchor="middle" x="612" y="-892.4" font-family="Verdana" font-size="7.00" fill="#000000">time: 0.000000s</text>
<text text-anchor="middle" x="612" y="-884.4" font-family="Verdana" font-size="7.00" fill="#000000">input:(yield_curve_data, interpolation_method, parametric_data),</text>
</g>
<!-- InterpolationYieldCurveRate&#45;&gt;InterpolationMethod.YieldCurveInterpolation -->
<g id="edge4" class="edge">
<title>InterpolationYieldCurveRate&#45;&gt;InterpolationMethod.YieldCurveInterpolation</title>
<path fill="none" stroke="#b1b2b2" d="M505.13,-994.89C529.61,-972.93 560.62,-945.1 582.92,-925.09"/>
<polygon fill="#b1b2b2" stroke="#b1b2b2" points="585.32,-927.64 590.42,-918.36 580.64,-922.43 585.32,-927.64"/>
<text text-anchor="middle" x="533" y="-971.4" font-family="Verdana" font-size="7.00" fill="#000000">1</text>
</g>
<!-- YieldCurveTermRate -->
<g id="node5" class="node">
<title>YieldCurveTermRate</title>
<polygon fill="#9997e5" stroke="#9997e5" points="313.5,-567 16.5,-567 16.5,-519 313.5,-519 313.5,-567"/>
<text text-anchor="middle" x="165" y="-557.4" font-family="Verdana" font-size="7.00" fill="#000000">YieldCurveTermRate</text>
<text text-anchor="middle" x="165" y="-549.4" font-family="Verdana" font-size="7.00" fill="#000000">calls: 1</text>
<text text-anchor="middle" x="165" y="-541.4" font-family="Verdana" font-size="7.00" fill="#000000">time: 0.003000s</text>
<text text-anchor="middle" x="165" y="-533.4" font-family="Verdana" font-size="7.00" fill="#000000">input:(entry_data, currency_code, zero_coupon_mode, zero_coupon_basis,</text>
<text text-anchor="middle" x="165" y="-525.4" font-family="Verdana" font-size="7.00" fill="#000000"> spread_type, fam_ref, spread, short_rate, long_rate, future_rate),</text>
</g>
<!-- SmoothYieldCurve&#45;&gt;YieldCurveTermRate -->
<g id="edge5" class="edge">
<title>SmoothYieldCurve&#45;&gt;YieldCurveTermRate</title>
<path fill="none" stroke="#7775b2" d="M306.37,-861.86C275.91,-793.38 209.02,-642.97 179.49,-576.58"/>
<polygon fill="#7775b2" stroke="#7775b2" points="182.68,-575.13 175.42,-567.42 176.28,-577.98 182.68,-575.13"/>
<text text-anchor="middle" x="248" y="-721.4" font-family="Verdana" font-size="7.00" fill="#000000">1</text>
</g>
<!-- ForwardTermRate -->
<g id="node13" class="node">
<title>ForwardTermRate</title>
<polygon fill="#b0c1e5" stroke="#b0c1e5" points="621.5,-801 338.5,-801 338.5,-745 621.5,-745 621.5,-801"/>
<text text-anchor="middle" x="480" y="-791.4" font-family="Verdana" font-size="7.00" fill="#000000">ForwardTermRate</text>
<text text-anchor="middle" x="480" y="-783.4" font-family="Verdana" font-size="7.00" fill="#000000">calls: 1</text>
<text text-anchor="middle" x="480" y="-775.4" font-family="Verdana" font-size="7.00" fill="#000000">time: 0.001999s</text>
<text text-anchor="middle" x="480" y="-767.4" font-family="Verdana" font-size="7.00" fill="#000000">input:(entry_data, currency_code, short_rate, long_rate,</text>
<text text-anchor="middle" x="480" y="-759.4" font-family="Verdana" font-size="7.00" fill="#000000"> zero_coupon_mode, zero_coupon_basis, spread_type, fam_ref, spread,</text>
<text text-anchor="middle" x="480" y="-751.4" font-family="Verdana" font-size="7.00" fill="#000000"> future_rate, forward_rate_maturity, forward_rate)</text>
</g>
<!-- SmoothYieldCurve&#45;&gt;ForwardTermRate -->
<g id="edge6" class="edge">
<title>SmoothYieldCurve&#45;&gt;ForwardTermRate</title>
<path fill="none" stroke="#8996b2" d="M367.28,-861.75C389.27,-844.63 415.56,-824.17 437.21,-807.31"/>
<polygon fill="#8996b2" stroke="#8996b2" points="439.52,-809.95 445.27,-801.04 435.22,-804.42 439.52,-809.95"/>
<text text-anchor="middle" x="399" y="-838.4" font-family="Verdana" font-size="7.00" fill="#000000">1</text>
</g>
<!-- IRTemplates.SelectShortLongTemplate -->
<g id="node6" class="node">
<title>IRTemplates.SelectShortLongTemplate</title>
<polygon fill="#a5b0e5" stroke="#a5b0e5" points="325,-454 75,-454 75,-398 325,-398 325,-454"/>
<text text-anchor="middle" x="200" y="-444.4" font-family="Verdana" font-size="7.00" fill="#000000">IRTemplates.SelectShortLongTemplate</text>
<text text-anchor="middle" x="200" y="-436.4" font-family="Verdana" font-size="7.00" fill="#000000">calls: 21</text>
<text text-anchor="middle" x="200" y="-428.4" font-family="Verdana" font-size="7.00" fill="#000000">time: 0.001000s</text>
<text text-anchor="middle" x="200" y="-420.4" font-family="Verdana" font-size="7.00" fill="#000000">input:(entry_data_series, currency_code, zero_coupon_mode,</text>
<text text-anchor="middle" x="200" y="-412.4" font-family="Verdana" font-size="7.00" fill="#000000"> zero_coupon_basis, spread_type, fam_ref, spread, short_rate,</text>
<text text-anchor="middle" x="200" y="-404.4" font-family="Verdana" font-size="7.00" fill="#000000"> long_rate)</text>
</g>
<!-- YieldCurveTermRate&#45;&gt;IRTemplates.SelectShortLongTemplate -->
<g id="edge7" class="edge">
<title>YieldCurveTermRate&#45;&gt;IRTemplates.SelectShortLongTemplate</title>
<path fill="none" stroke="#94a3b2" d="M172.08,-518.73C176.87,-503 183.29,-481.9 188.77,-463.91"/>
<polygon fill="#94a3b2" stroke="#94a3b2" points="192.13,-464.87 191.7,-454.28 185.44,-462.83 192.13,-464.87"/>
<text text-anchor="middle" x="183" y="-491.4" font-family="Verdana" font-size="7.00" fill="#000000">7</text>
</g>
<!-- IRTemplates.SelectShortFutureLongTemplate -->
<g id="node8" class="node">
<title>IRTemplates.SelectShortFutureLongTemplate</title>
<polygon fill="#9b8ce5" stroke="#9b8ce5" points="593,-454 343,-454 343,-398 593,-398 593,-454"/>
<text text-anchor="middle" x="468" y="-444.4" font-family="Verdana" font-size="7.00" fill="#000000">IRTemplates.SelectShortFutureLongTemplate</text>
<text text-anchor="middle" x="468" y="-436.4" font-family="Verdana" font-size="7.00" fill="#000000">calls: 21</text>
<text text-anchor="middle" x="468" y="-428.4" font-family="Verdana" font-size="7.00" fill="#000000">time: 0.001999s</text>
<text text-anchor="middle" x="468" y="-420.4" font-family="Verdana" font-size="7.00" fill="#000000">input:(entry_data_series, currency_code, zero_coupon_mode,</text>
<text text-anchor="middle" x="468" y="-412.4" font-family="Verdana" font-size="7.00" fill="#000000"> zero_coupon_basis, spread_type, fam_ref, spread, short_rate,</text>
<text text-anchor="middle" x="468" y="-404.4" font-family="Verdana" font-size="7.00" fill="#000000"> long_rate, future_rate)</text>
</g>
<!-- YieldCurveTermRate&#45;&gt;IRTemplates.SelectShortFutureLongTemplate -->
<g id="edge8" class="edge">
<title>YieldCurveTermRate&#45;&gt;IRTemplates.SelectShortFutureLongTemplate</title>
<path fill="none" stroke="#8089b2" d="M230.61,-518.95C262,-507.76 300.05,-493.96 334,-481 353.04,-473.73 373.5,-465.63 392.55,-457.97"/>
<polygon fill="#8089b2" stroke="#8089b2" points="394.11,-461.11 402.08,-454.12 391.49,-454.62 394.11,-461.11"/>
<text text-anchor="middle" x="314" y="-491.4" font-family="Verdana" font-size="7.00" fill="#000000">7</text>
</g>
<!-- IRTemplates.ShortTemplate -->
<g id="node7" class="node">
<title>IRTemplates.ShortTemplate</title>
<polygon fill="#b6c8e5" stroke="#b6c8e5" points="323,-354 75,-354 75,-306 323,-306 323,-354"/>
<text text-anchor="middle" x="199" y="-344.4" font-family="Verdana" font-size="7.00" fill="#000000">IRTemplates.ShortTemplate</text>
<text text-anchor="middle" x="199" y="-336.4" font-family="Verdana" font-size="7.00" fill="#000000">calls: 12</text>
<text text-anchor="middle" x="199" y="-328.4" font-family="Verdana" font-size="7.00" fill="#000000">time: 0.000999s</text>
<text text-anchor="middle" x="199" y="-320.4" font-family="Verdana" font-size="7.00" fill="#000000">input:(entry_data_series, currency_code, zero_coupon_mode,</text>
<text text-anchor="middle" x="199" y="-312.4" font-family="Verdana" font-size="7.00" fill="#000000"> zero_coupon_basis, spread_type, fam_ref, spread)</text>
</g>
<!-- IRTemplates.SelectShortLongTemplate&#45;&gt;IRTemplates.ShortTemplate -->
<g id="edge9" class="edge">
<title>IRTemplates.SelectShortLongTemplate&#45;&gt;IRTemplates.ShortTemplate</title>
<path fill="none" stroke="#96a5b2" d="M199.71,-397.81C199.6,-387.37 199.47,-375.34 199.36,-364.39"/>
<polygon fill="#96a5b2" stroke="#96a5b2" points="202.85,-364.27 199.25,-354.31 195.85,-364.34 202.85,-364.27"/>
<text text-anchor="middle" x="202" y="-374.4" font-family="Verdana" font-size="7.00" fill="#000000">6</text>
</g>
<!-- IRTemplates.LongTemplate -->
<g id="node9" class="node">
<title>IRTemplates.LongTemplate</title>
<polygon fill="#b9cce5" stroke="#b9cce5" points="589,-354 341,-354 341,-306 589,-306 589,-354"/>
<text text-anchor="middle" x="465" y="-344.4" font-family="Verdana" font-size="7.00" fill="#000000">IRTemplates.LongTemplate</text>
<text text-anchor="middle" x="465" y="-336.4" font-family="Verdana" font-size="7.00" fill="#000000">calls: 24</text>
<text text-anchor="middle" x="465" y="-328.4" font-family="Verdana" font-size="7.00" fill="#000000">time: 0.000000s</text>
<text text-anchor="middle" x="465" y="-320.4" font-family="Verdana" font-size="7.00" fill="#000000">input:(entry_data_series, currency_code, zero_coupon_mode,</text>
<text text-anchor="middle" x="465" y="-312.4" font-family="Verdana" font-size="7.00" fill="#000000"> zero_coupon_basis, spread_type, fam_ref, spread)</text>
</g>
<!-- IRTemplates.SelectShortLongTemplate&#45;&gt;IRTemplates.LongTemplate -->
<g id="edge10" class="edge">
<title>IRTemplates.SelectShortLongTemplate&#45;&gt;IRTemplates.LongTemplate</title>
<path fill="none" stroke="#9daab2" d="M276.29,-397.94C312.07,-385.25 354.56,-370.17 390.16,-357.55"/>
<polygon fill="#9daab2" stroke="#9daab2" points="391.75,-360.7 400,-354.06 389.41,-354.1 391.75,-360.7"/>
<text text-anchor="middle" x="353.5" y="-374.4" font-family="Verdana" font-size="7.00" fill="#000000">15</text>
</g>
<!-- curvefamily.GetCurveFamilyUIParams -->
<g id="node11" class="node">
<title>curvefamily.GetCurveFamilyUIParams</title>
<polygon fill="#9999e5" stroke="#9999e5" points="595.5,-245 334.5,-245 334.5,-189 595.5,-189 595.5,-245"/>
<text text-anchor="middle" x="465" y="-235.4" font-family="Verdana" font-size="7.00" fill="#000000">curvefamily.GetCurveFamilyUIParams</text>
<text text-anchor="middle" x="465" y="-227.4" font-family="Verdana" font-size="7.00" fill="#000000">calls: 42</text>
<text text-anchor="middle" x="465" y="-219.4" font-family="Verdana" font-size="7.00" fill="#000000">time: 0.000000s</text>
<text text-anchor="middle" x="465" y="-211.4" font-family="Verdana" font-size="7.00" fill="#000000">input:(name, model, currency_str, vega_curve_type, breakdowns,</text>
<text text-anchor="middle" x="465" y="-203.4" font-family="Verdana" font-size="7.00" fill="#000000"> auxiliary_infomation, spread_analysis_rate, hw_mean_reversion,</text>
<text text-anchor="middle" x="465" y="-195.4" font-family="Verdana" font-size="7.00" fill="#000000"> input_yield_curve_data)</text>
</g>
<!-- IRTemplates.ShortTemplate&#45;&gt;curvefamily.GetCurveFamilyUIParams -->
<g id="edge11" class="edge">
<title>IRTemplates.ShortTemplate&#45;&gt;curvefamily.GetCurveFamilyUIParams</title>
<path fill="none" stroke="#a1adb2" d="M254.44,-305.87C294.02,-289.35 347.68,-266.96 390.92,-248.91"/>
<polygon fill="#a1adb2" stroke="#a1adb2" points="392.38,-252.1 400.26,-245.01 389.69,-245.64 392.38,-252.1"/>
<text text-anchor="middle" x="321.5" y="-282.4" font-family="Verdana" font-size="7.00" fill="#000000">12</text>
</g>
<!-- IRTemplates.SelectShortFutureLongTemplate&#45;&gt;IRTemplates.ShortTemplate -->
<g id="edge13" class="edge">
<title>IRTemplates.SelectShortFutureLongTemplate&#45;&gt;IRTemplates.ShortTemplate</title>
<path fill="none" stroke="#96a5b2" d="M419.87,-397.88C402.35,-388.77 382.14,-379.12 363,-372 347.97,-366.41 331.88,-361.33 315.87,-356.81"/>
<polygon fill="#96a5b2" stroke="#96a5b2" points="316.49,-353.35 305.92,-354.07 314.63,-360.1 316.49,-353.35"/>
<text text-anchor="middle" x="383" y="-374.4" font-family="Verdana" font-size="7.00" fill="#000000">6</text>
</g>
<!-- IRTemplates.SelectShortFutureLongTemplate&#45;&gt;IRTemplates.LongTemplate -->
<g id="edge15" class="edge">
<title>IRTemplates.SelectShortFutureLongTemplate&#45;&gt;IRTemplates.LongTemplate</title>
<path fill="none" stroke="#a5afb2" d="M467.13,-397.81C466.8,-387.37 466.42,-375.34 466.07,-364.39"/>
<polygon fill="#a5afb2" stroke="#a5afb2" points="469.56,-364.19 465.74,-354.31 462.56,-364.41 469.56,-364.19"/>
<text text-anchor="middle" x="469" y="-374.4" font-family="Verdana" font-size="7.00" fill="#000000">9</text>
</g>
<!-- IRTemplates.FutureTemplate -->
<g id="node10" class="node">
<title>IRTemplates.FutureTemplate</title>
<polygon fill="#c1d4e5" stroke="#c1d4e5" points="855,-354 607,-354 607,-306 855,-306 855,-354"/>
<text text-anchor="middle" x="731" y="-344.4" font-family="Verdana" font-size="7.00" fill="#000000">IRTemplates.FutureTemplate</text>
<text text-anchor="middle" x="731" y="-336.4" font-family="Verdana" font-size="7.00" fill="#000000">calls: 6</text>
<text text-anchor="middle" x="731" y="-328.4" font-family="Verdana" font-size="7.00" fill="#000000">time: 0.000999s</text>
<text text-anchor="middle" x="731" y="-320.4" font-family="Verdana" font-size="7.00" fill="#000000">input:(entry_data_series, currency_code, zero_coupon_mode,</text>
<text text-anchor="middle" x="731" y="-312.4" font-family="Verdana" font-size="7.00" fill="#000000"> zero_coupon_basis, spread_type, fam_ref, spread)</text>
</g>
<!-- IRTemplates.SelectShortFutureLongTemplate&#45;&gt;IRTemplates.FutureTemplate -->
<g id="edge14" class="edge">
<title>IRTemplates.SelectShortFutureLongTemplate&#45;&gt;IRTemplates.FutureTemplate</title>
<path fill="none" stroke="#96a5b2" d="M543.72,-397.94C579.23,-385.25 621.4,-370.17 656.72,-357.55"/>
<polygon fill="#96a5b2" stroke="#96a5b2" points="658.26,-360.72 666.49,-354.06 655.9,-354.13 658.26,-360.72"/>
<text text-anchor="middle" x="618" y="-374.4" font-family="Verdana" font-size="7.00" fill="#000000">6</text>
</g>
<!-- IRTemplates.LongTemplate&#45;&gt;curvefamily.GetCurveFamilyUIParams -->
<g id="edge16" class="edge">
<title>IRTemplates.LongTemplate&#45;&gt;curvefamily.GetCurveFamilyUIParams</title>
<path fill="none" stroke="#909fb2" d="M465,-305.73C465,-291.1 465,-271.88 465,-255.17"/>
<polygon fill="#909fb2" stroke="#909fb2" points="468.5,-255.15 465,-245.15 461.5,-255.15 468.5,-255.15"/>
<text text-anchor="middle" x="470.5" y="-282.4" font-family="Verdana" font-size="7.00" fill="#000000">24</text>
</g>
<!-- IRTemplates.FutureTemplate&#45;&gt;curvefamily.GetCurveFamilyUIParams -->
<g id="edge17" class="edge">
<title>IRTemplates.FutureTemplate&#45;&gt;curvefamily.GetCurveFamilyUIParams</title>
<path fill="none" stroke="#aab1b2" d="M675.56,-305.87C635.98,-289.35 582.32,-266.96 539.08,-248.91"/>
<polygon fill="#aab1b2" stroke="#aab1b2" points="540.31,-245.64 529.74,-245.01 537.62,-252.1 540.31,-245.64"/>
<text text-anchor="middle" x="632" y="-282.4" font-family="Verdana" font-size="7.00" fill="#000000">6</text>
</g>
<!-- currency.CreatingCurrencies -->
<g id="node12" class="node">
<title>currency.CreatingCurrencies</title>
<polygon fill="#9999e5" stroke="#9999e5" points="609,-128 321,-128 321,-32 609,-32 609,-128"/>
<text text-anchor="middle" x="465" y="-118.4" font-family="Verdana" font-size="7.00" fill="#000000">currency.CreatingCurrencies</text>
<text text-anchor="middle" x="465" y="-110.4" font-family="Verdana" font-size="7.00" fill="#000000">calls: 42</text>
<text text-anchor="middle" x="465" y="-102.4" font-family="Verdana" font-size="7.00" fill="#000000">time: 0.000000s</text>
<text text-anchor="middle" x="465" y="-94.4" font-family="Verdana" font-size="7.00" fill="#000000">input:(ccy_code, name, index, quota, funding, base_ccy, base_fx_rate,</text>
<text text-anchor="middle" x="465" y="-86.4" font-family="Verdana" font-size="7.00" fill="#000000"> rtf, inverse_ric, master_ccy, stub_payment_period_for_swaps,</text>
<text text-anchor="middle" x="465" y="-78.4" font-family="Verdana" font-size="7.00" fill="#000000"> cash_settlement_swaptions_basis, cash_settlement_swaptions_mode,</text>
<text text-anchor="middle" x="465" y="-70.4" font-family="Verdana" font-size="7.00" fill="#000000"> cash_settlement_swaptions_delivery_for_swaption_volatility,</text>
<text text-anchor="middle" x="465" y="-62.4" font-family="Verdana" font-size="7.00" fill="#000000"> default_parameters_for_cds_basis, default_parameters_for_cds_mode,</text>
<text text-anchor="middle" x="465" y="-54.4" font-family="Verdana" font-size="7.00" fill="#000000"> default_parameters_for_cds_frequency, model, round_num, rule,</text>
<text text-anchor="middle" x="465" y="-46.4" font-family="Verdana" font-size="7.00" fill="#000000"> on_bank_holiday_coupon_is_paid, shares_ownership, bonds_ownership,</text>
<text text-anchor="middle" x="465" y="-38.4" font-family="Verdana" font-size="7.00" fill="#000000"> future_forward_correlation_faxctor)</text>
</g>
<!-- curvefamily.GetCurveFamilyUIParams&#45;&gt;currency.CreatingCurrencies -->
<g id="edge12" class="edge">
<title>curvefamily.GetCurveFamilyUIParams&#45;&gt;currency.CreatingCurrencies</title>
<path fill="none" stroke="#7777b2" d="M465,-188.68C465,-174.19 465,-155.81 465,-138.36"/>
<polygon fill="#7777b2" stroke="#7777b2" points="468.5,-138.23 465,-128.23 461.5,-138.23 468.5,-138.23"/>
<text text-anchor="middle" x="470.5" y="-165.4" font-family="Verdana" font-size="7.00" fill="#000000">42</text>
</g>
<!-- forward_yield_curve.RateForwardRateTemplate -->
<g id="node14" class="node">
<title>forward_yield_curve.RateForwardRateTemplate</title>
<polygon fill="#bfd2e5" stroke="#bfd2e5" points="922.5,-684 639.5,-684 639.5,-628 922.5,-628 922.5,-684"/>
<text text-anchor="middle" x="781" y="-674.4" font-family="Verdana" font-size="7.00" fill="#000000">forward_yield_curve.RateForwardRateTemplate</text>
<text text-anchor="middle" x="781" y="-666.4" font-family="Verdana" font-size="7.00" fill="#000000">calls: 7</text>
<text text-anchor="middle" x="781" y="-658.4" font-family="Verdana" font-size="7.00" fill="#000000">time: 0.000999s</text>
<text text-anchor="middle" x="781" y="-650.4" font-family="Verdana" font-size="7.00" fill="#000000">input:(entry_data_series, currency_code, short_rate, long_rate,</text>
<text text-anchor="middle" x="781" y="-642.4" font-family="Verdana" font-size="7.00" fill="#000000"> zero_coupon_mode, zero_coupon_basis, spread_type, fam_ref, spread,</text>
<text text-anchor="middle" x="781" y="-634.4" font-family="Verdana" font-size="7.00" fill="#000000"> future_rate)</text>
</g>
<!-- ForwardTermRate&#45;&gt;forward_yield_curve.RateForwardRateTemplate -->
<g id="edge18" class="edge">
<title>ForwardTermRate&#45;&gt;forward_yield_curve.RateForwardRateTemplate</title>
<path fill="none" stroke="#94a3b2" d="M550.95,-744.89C595.91,-727.71 654.16,-705.46 700.8,-687.64"/>
<polygon fill="#94a3b2" stroke="#94a3b2" points="702.17,-690.86 710.26,-684.03 699.67,-684.32 702.17,-690.86"/>
<text text-anchor="middle" x="615" y="-721.4" font-family="Verdana" font-size="7.00" fill="#000000">7</text>
</g>
<!-- forward_yield_curve.MaturityForwardRateTemplate -->
<g id="node16" class="node">
<title>forward_yield_curve.MaturityForwardRateTemplate</title>
<polygon fill="#d8e3e5" stroke="#d8e3e5" points="621.5,-684 338.5,-684 338.5,-628 621.5,-628 621.5,-684"/>
<text text-anchor="middle" x="480" y="-674.4" font-family="Verdana" font-size="7.00" fill="#000000">forward_yield_curve.MaturityForwardRateTemplate</text>
<text text-anchor="middle" x="480" y="-666.4" font-family="Verdana" font-size="7.00" fill="#000000">calls: 7</text>
<text text-anchor="middle" x="480" y="-658.4" font-family="Verdana" font-size="7.00" fill="#000000">time: 0.000000s</text>
<text text-anchor="middle" x="480" y="-650.4" font-family="Verdana" font-size="7.00" fill="#000000">input:(entry_data_series, currency_code, short_rate, long_rate,</text>
<text text-anchor="middle" x="480" y="-642.4" font-family="Verdana" font-size="7.00" fill="#000000"> zero_coupon_mode, zero_coupon_basis, spread_type, fam_ref, spread,</text>
<text text-anchor="middle" x="480" y="-634.4" font-family="Verdana" font-size="7.00" fill="#000000"> future_rate, forward_rate_maturity)</text>
</g>
<!-- ForwardTermRate&#45;&gt;forward_yield_curve.MaturityForwardRateTemplate -->
<g id="edge19" class="edge">
<title>ForwardTermRate&#45;&gt;forward_yield_curve.MaturityForwardRateTemplate</title>
<path fill="none" stroke="#a8b0b2" d="M480,-744.75C480,-729.71 480,-710.81 480,-694.41"/>
<polygon fill="#a8b0b2" stroke="#a8b0b2" points="483.5,-694.06 480,-684.06 476.5,-694.06 483.5,-694.06"/>
<text text-anchor="middle" x="483" y="-721.4" font-family="Verdana" font-size="7.00" fill="#000000">7</text>
</g>
<!-- forward_yield_curve.ForwardRateTemplate -->
<g id="node15" class="node">
<title>forward_yield_curve.ForwardRateTemplate</title>
<polygon fill="#b2c3e5" stroke="#b2c3e5" points="621.5,-571 338.5,-571 338.5,-515 621.5,-515 621.5,-571"/>
<text text-anchor="middle" x="480" y="-561.4" font-family="Verdana" font-size="7.00" fill="#000000">forward_yield_curve.ForwardRateTemplate</text>
<text text-anchor="middle" x="480" y="-553.4" font-family="Verdana" font-size="7.00" fill="#000000">calls: 14</text>
<text text-anchor="middle" x="480" y="-545.4" font-family="Verdana" font-size="7.00" fill="#000000">time: 0.000999s</text>
<text text-anchor="middle" x="480" y="-537.4" font-family="Verdana" font-size="7.00" fill="#000000">input:(entry_data_series, currency_code, short_rate, long_rate,</text>
<text text-anchor="middle" x="480" y="-529.4" font-family="Verdana" font-size="7.00" fill="#000000"> zero_coupon_mode, zero_coupon_basis, spread_type, fam_ref, spread,</text>
<text text-anchor="middle" x="480" y="-521.4" font-family="Verdana" font-size="7.00" fill="#000000"> future_rate, forward_rate_maturity)</text>
</g>
<!-- forward_yield_curve.RateForwardRateTemplate&#45;&gt;forward_yield_curve.ForwardRateTemplate -->
<g id="edge20" class="edge">
<title>forward_yield_curve.RateForwardRateTemplate&#45;&gt;forward_yield_curve.ForwardRateTemplate</title>
<path fill="none" stroke="#94a3b2" d="M707.75,-627.99C663.97,-611.84 608.22,-591.28 562.83,-574.55"/>
<polygon fill="#94a3b2" stroke="#94a3b2" points="563.91,-571.21 553.32,-571.04 561.49,-577.78 563.91,-571.21"/>
<text text-anchor="middle" x="660" y="-604.4" font-family="Verdana" font-size="7.00" fill="#000000">7</text>
</g>
<!-- forward_yield_curve.ForwardRateTemplate&#45;&gt;IRTemplates.SelectShortLongTemplate -->
<g id="edge21" class="edge">
<title>forward_yield_curve.ForwardRateTemplate&#45;&gt;IRTemplates.SelectShortLongTemplate</title>
<path fill="none" stroke="#8a98b2" d="M414,-514.89C372.43,-497.82 318.64,-475.73 275.38,-457.96"/>
<polygon fill="#8a98b2" stroke="#8a98b2" points="276.62,-454.69 266.04,-454.12 273.96,-461.16 276.62,-454.69"/>
<text text-anchor="middle" x="370.5" y="-491.4" font-family="Verdana" font-size="7.00" fill="#000000">14</text>
</g>
<!-- forward_yield_curve.ForwardRateTemplate&#45;&gt;IRTemplates.SelectShortFutureLongTemplate -->
<g id="edge22" class="edge">
<title>forward_yield_curve.ForwardRateTemplate&#45;&gt;IRTemplates.SelectShortFutureLongTemplate</title>
<path fill="none" stroke="#7777b2" d="M477.16,-514.75C475.59,-499.71 473.62,-480.81 471.9,-464.41"/>
<polygon fill="#7777b2" stroke="#7777b2" points="475.34,-463.64 470.82,-454.06 468.38,-464.37 475.34,-463.64"/>
<text text-anchor="middle" x="480.5" y="-491.4" font-family="Verdana" font-size="7.00" fill="#000000">14</text>
</g>
<!-- forward_yield_curve.MaturityForwardRateTemplate&#45;&gt;forward_yield_curve.ForwardRateTemplate -->
<g id="edge23" class="edge">
<title>forward_yield_curve.MaturityForwardRateTemplate&#45;&gt;forward_yield_curve.ForwardRateTemplate</title>
<path fill="none" stroke="#94a3b2" d="M480,-627.85C480,-613.87 480,-596.62 480,-581.4"/>
<polygon fill="#94a3b2" stroke="#94a3b2" points="483.5,-581.26 480,-571.26 476.5,-581.26 483.5,-581.26"/>
<text text-anchor="middle" x="483" y="-604.4" font-family="Verdana" font-size="7.00" fill="#000000">7</text>
</g>
</g>
</svg>
