<?xml version="1.0" encoding="UTF-8" standalone="no"?>
<!DOCTYPE svg PUBLIC "-//W3C//DTD SVG 1.1//EN"
 "http://www.w3.org/Graphics/SVG/1.1/DTD/svg11.dtd">
<!-- Generated by graphviz version 3.0.0 (20220226.1711)
 -->
<!-- Title: G Pages: 1 -->
<svg width="326pt" height="385pt"
 viewBox="0.00 0.00 326.00 385.00" xmlns="http://www.w3.org/2000/svg" xmlns:xlink="http://www.w3.org/1999/xlink">
<g id="graph0" class="graph" transform="scale(1 1) rotate(0) translate(4 381)">
<title>G</title>
<polygon fill="white" stroke="transparent" points="-4,4 -4,-381 322,-381 322,4 -4,4"/>
<text text-anchor="middle" x="159" y="-6.4" font-family="Verdana" font-size="7.00" fill="#000000" fill-opacity="0.498039">Generated by Python Call Graph v1.1.3</text>
<g id="clust2" class="cluster">
<title>cluster_GetCurveFamilyUIParams</title>
<polygon fill="none" stroke="#000000" stroke-width="2" stroke-opacity="0.800000" points="20,-181 20,-272 298,-272 298,-181 20,-181"/>
<text text-anchor="middle" x="159" y="-260" font-family="Verdana" font-size="10.00">GetCurveFamilyUIParams</text>
</g>
<g id="clust1" class="cluster">
<title>cluster___main__</title>
<polygon fill="none" stroke="#000000" stroke-width="2" stroke-opacity="0.800000" points="110,-298 110,-369 208,-369 208,-298 110,-298"/>
<text text-anchor="middle" x="159" y="-357" font-family="Verdana" font-size="10.00">__main__</text>
</g>
<g id="clust3" class="cluster">
<title>cluster_currency</title>
<polygon fill="none" stroke="#000000" stroke-width="2" stroke-opacity="0.800000" points="8,-24 8,-155 310,-155 310,-24 8,-24"/>
<text text-anchor="middle" x="159" y="-143" font-family="Verdana" font-size="10.00">currency</text>
</g>
<!-- __main__ -->
<g id="node1" class="node">
<title>__main__</title>
<polygon fill="#9999e5" stroke="#9999e5" points="200,-342 118,-342 118,-306 200,-306 200,-342"/>
<text text-anchor="middle" x="159" y="-330.4" font-family="Verdana" font-size="7.00" fill="#000000">__main__</text>
<text text-anchor="middle" x="159" y="-322.4" font-family="Verdana" font-size="7.00" fill="#000000">calls: 1</text>
<text text-anchor="middle" x="159" y="-314.4" font-family="Verdana" font-size="7.00" fill="#000000">time: 0.000000s</text>
</g>
<!-- GetCurveFamilyUIParams -->
<g id="node2" class="node">
<title>GetCurveFamilyUIParams</title>
<polygon fill="#9999e5" stroke="#9999e5" points="289.5,-245 28.5,-245 28.5,-189 289.5,-189 289.5,-245"/>
<text text-anchor="middle" x="159" y="-235.4" font-family="Verdana" font-size="7.00" fill="#000000">GetCurveFamilyUIParams</text>
<text text-anchor="middle" x="159" y="-227.4" font-family="Verdana" font-size="7.00" fill="#000000">calls: 1</text>
<text text-anchor="middle" x="159" y="-219.4" font-family="Verdana" font-size="7.00" fill="#000000">time: 0.000000s</text>
<text text-anchor="middle" x="159" y="-211.4" font-family="Verdana" font-size="7.00" fill="#000000">input:(name, model, currency_str, vega_curve_type, breakdowns,</text>
<text text-anchor="middle" x="159" y="-203.4" font-family="Verdana" font-size="7.00" fill="#000000">auxiliary_infomation, spread_analysis_rate, hw_mean_reversion,</text>
<text text-anchor="middle" x="159" y="-195.4" font-family="Verdana" font-size="7.00" fill="#000000">input_yield_curve_data)</text>
</g>
<!-- __main__&#45;&gt;GetCurveFamilyUIParams -->
<g id="edge1" class="edge">
<title>__main__&#45;&gt;GetCurveFamilyUIParams</title>
<path fill="none" stroke="#7777b2" d="M159,-305.66C159,-292.06 159,-272.63 159,-255.51"/>
<polygon fill="#7777b2" stroke="#7777b2" points="162.5,-255.23 159,-245.23 155.5,-255.23 162.5,-255.23"/>
<text text-anchor="middle" x="162" y="-282.4" font-family="Verdana" font-size="7.00" fill="#000000">1</text>
</g>
<!-- currency.CreatingCurrencies -->
<g id="node3" class="node">
<title>currency.CreatingCurrencies</title>
<polygon fill="#9999e5" stroke="#9999e5" points="302,-128 16,-128 16,-32 302,-32 302,-128"/>
<text text-anchor="middle" x="159" y="-118.4" font-family="Verdana" font-size="7.00" fill="#000000">currency.CreatingCurrencies</text>
<text text-anchor="middle" x="159" y="-110.4" font-family="Verdana" font-size="7.00" fill="#000000">calls: 1</text>
<text text-anchor="middle" x="159" y="-102.4" font-family="Verdana" font-size="7.00" fill="#000000">time: 0.000000s</text>
<text text-anchor="middle" x="159" y="-94.4" font-family="Verdana" font-size="7.00" fill="#000000">input:(ccy_code, name, index, quota, funding, base_ccy, base_fx_rate,</text>
<text text-anchor="middle" x="159" y="-86.4" font-family="Verdana" font-size="7.00" fill="#000000">rtf, inverse_ric, master_ccy, stub_payment_period_for_swaps,</text>
<text text-anchor="middle" x="159" y="-78.4" font-family="Verdana" font-size="7.00" fill="#000000">cash_settlement_swaptions_basis, cash_settlement_swaptions_mode,</text>
<text text-anchor="middle" x="159" y="-70.4" font-family="Verdana" font-size="7.00" fill="#000000">cash_settlement_swaptions_delivery_for_swaption_volatility,</text>
<text text-anchor="middle" x="159" y="-62.4" font-family="Verdana" font-size="7.00" fill="#000000">default_parameters_for_cds_basis, default_parameters_for_cds_mode,</text>
<text text-anchor="middle" x="159" y="-54.4" font-family="Verdana" font-size="7.00" fill="#000000">default_parameters_for_cds_frequency, model, round_num, rule,</text>
<text text-anchor="middle" x="159" y="-46.4" font-family="Verdana" font-size="7.00" fill="#000000">on_bank_holiday_coupon_is_paid, shares_ownership, bonds_ownership,</text>
<text text-anchor="middle" x="159" y="-38.4" font-family="Verdana" font-size="7.00" fill="#000000">future_forward_correlation_faxctor)</text>
</g>
<!-- GetCurveFamilyUIParams&#45;&gt;currency.CreatingCurrencies -->
<g id="edge2" class="edge">
<title>GetCurveFamilyUIParams&#45;&gt;currency.CreatingCurrencies</title>
<path fill="none" stroke="#7777b2" d="M159,-188.68C159,-174.19 159,-155.81 159,-138.36"/>
<polygon fill="#7777b2" stroke="#7777b2" points="162.5,-138.23 159,-128.23 155.5,-138.23 162.5,-138.23"/>
<text text-anchor="middle" x="162" y="-165.4" font-family="Verdana" font-size="7.00" fill="#000000">1</text>
</g>
</g>
</svg>
