<?xml version="1.0" encoding="UTF-8" standalone="no"?>
<!DOCTYPE svg PUBLIC "-//W3C//DTD SVG 1.1//EN"
 "http://www.w3.org/Graphics/SVG/1.1/DTD/svg11.dtd">
<!-- Generated by graphviz version 3.0.0 (20220226.1711)
 -->
<!-- Title: G Pages: 1 -->
<svg width="534pt" height="462pt"
 viewBox="0.00 0.00 534.00 462.00" xmlns="http://www.w3.org/2000/svg" xmlns:xlink="http://www.w3.org/1999/xlink">
<g id="graph0" class="graph" transform="scale(1 1) rotate(0) translate(4 458)">
<title>G</title>
<polygon fill="white" stroke="transparent" points="-4,4 -4,-458 530,-458 530,4 -4,4"/>
<text text-anchor="middle" x="263" y="-6.4" font-family="Verdana" font-size="7.00" fill="#000000" fill-opacity="0.498039">Generated by Python Call Graph v1.1.3</text>
<g id="clust3" class="cluster">
<title>cluster_com</title>
<polygon fill="none" stroke="#000000" stroke-width="2" stroke-opacity="0.800000" points="214,-137 214,-212 312,-212 312,-137 214,-137"/>
<text text-anchor="middle" x="263" y="-200" font-family="Verdana" font-size="10.00">com</text>
</g>
<g id="clust4" class="cluster">
<title>cluster_&lt;module&gt;</title>
<polygon fill="none" stroke="#000000" stroke-width="2" stroke-opacity="0.800000" points="67,-26 67,-97 165,-97 165,-26 67,-26"/>
<text text-anchor="middle" x="116" y="-85" font-family="Verdana" font-size="10.00">&lt;module&gt;</text>
</g>
<g id="clust6" class="cluster">
<title>cluster_fu1</title>
<polygon fill="none" stroke="#000000" stroke-width="2" stroke-opacity="0.800000" points="8,-137 8,-212 206,-212 206,-137 8,-137"/>
<text text-anchor="middle" x="107" y="-200" font-family="Verdana" font-size="10.00">fu1</text>
</g>
<g id="clust7" class="cluster">
<title>cluster_func2</title>
<polygon fill="none" stroke="#000000" stroke-width="2" stroke-opacity="0.800000" points="356,-125 356,-224 518,-224 518,-125 356,-125"/>
<text text-anchor="middle" x="437" y="-212" font-family="Verdana" font-size="10.00">func2</text>
</g>
<g id="clust2" class="cluster">
<title>cluster_main</title>
<polygon fill="none" stroke="#000000" stroke-width="2" stroke-opacity="0.800000" points="180,-250 180,-349 346,-349 346,-250 180,-250"/>
<text text-anchor="middle" x="263" y="-337" font-family="Verdana" font-size="10.00">main</text>
</g>
<g id="clust1" class="cluster">
<title>cluster___main__</title>
<polygon fill="none" stroke="#000000" stroke-width="2" stroke-opacity="0.800000" points="214,-375 214,-446 312,-446 312,-375 214,-375"/>
<text text-anchor="middle" x="263" y="-434" font-family="Verdana" font-size="10.00">__main__</text>
</g>
<g id="clust5" class="cluster">
<title>cluster_func1</title>
<polygon fill="none" stroke="#000000" stroke-width="2" stroke-opacity="0.800000" points="324,-24 324,-99 422,-99 422,-24 324,-24"/>
<text text-anchor="middle" x="373" y="-87" font-family="Verdana" font-size="10.00">func1</text>
</g>
<!-- __main__ -->
<g id="node1" class="node">
<title>__main__</title>
<polygon fill="#cbdce5" stroke="#cbdce5" points="304,-419 222,-419 222,-383 304,-383 304,-419"/>
<text text-anchor="middle" x="263" y="-407.4" font-family="Verdana" font-size="7.00" fill="#000000">__main__</text>
<text text-anchor="middle" x="263" y="-399.4" font-family="Verdana" font-size="7.00" fill="#000000">calls: 1</text>
<text text-anchor="middle" x="263" y="-391.4" font-family="Verdana" font-size="7.00" fill="#000000">time: 0.000000s</text>
</g>
<!-- main -->
<g id="node2" class="node">
<title>main</title>
<polygon fill="#e532aa" stroke="#e532aa" points="337.5,-322 188.5,-322 188.5,-258 337.5,-258 337.5,-322"/>
<text text-anchor="middle" x="263" y="-312.4" font-family="Verdana" font-size="7.00" fill="#000000">main</text>
<text text-anchor="middle" x="263" y="-304.4" font-family="Verdana" font-size="7.00" fill="#000000">calls: 1</text>
<text text-anchor="middle" x="263" y="-296.4" font-family="Verdana" font-size="7.00" fill="#000000">time: 0.002948s</text>
<text text-anchor="middle" x="263" y="-288.4" font-family="Verdana" font-size="7.00" fill="#000000">input:(a, akjhg, b, c, d, ckjhg, dkjhg,</text>
<text text-anchor="middle" x="263" y="-280.4" font-family="Verdana" font-size="7.00" fill="#000000">ekjhg, fkjhg, gkjhg, hkjhg, kjhgj,</text>
<text text-anchor="middle" x="263" y="-272.4" font-family="Verdana" font-size="7.00" fill="#000000">kkjhg, l, zkjhg, xkjhg, vkjhg, nkjhg,</text>
<text text-anchor="middle" x="263" y="-264.4" font-family="Verdana" font-size="7.00" fill="#000000">mkjhg, kjhgy, ukjhg, i, o)</text>
</g>
<!-- __main__&#45;&gt;main -->
<g id="edge1" class="edge">
<title>__main__&#45;&gt;main</title>
<path fill="none" stroke="#b22784" d="M263,-382.97C263,-369.45 263,-349.98 263,-332.43"/>
<polygon fill="#b22784" stroke="#b22784" points="266.5,-332.38 263,-322.38 259.5,-332.38 266.5,-332.38"/>
<text text-anchor="middle" x="266" y="-359.4" font-family="Verdana" font-size="7.00" fill="#000000">1</text>
</g>
<!-- com.c1.plus -->
<g id="node3" class="node">
<title>com.c1.plus</title>
<polygon fill="#bc64e5" stroke="#bc64e5" points="304,-185 222,-185 222,-145 304,-145 304,-185"/>
<text text-anchor="middle" x="263" y="-175.4" font-family="Verdana" font-size="7.00" fill="#000000">com.c1.plus</text>
<text text-anchor="middle" x="263" y="-167.4" font-family="Verdana" font-size="7.00" fill="#000000">calls: 1</text>
<text text-anchor="middle" x="263" y="-159.4" font-family="Verdana" font-size="7.00" fill="#000000">time: 0.001987s</text>
<text text-anchor="middle" x="263" y="-151.4" font-family="Verdana" font-size="7.00" fill="#000000">input:(a, b)</text>
</g>
<!-- main&#45;&gt;com.c1.plus -->
<g id="edge2" class="edge">
<title>main&#45;&gt;com.c1.plus</title>
<path fill="none" stroke="#924eb2" d="M263,-257.96C263,-238.72 263,-214.15 263,-195.24"/>
<polygon fill="#924eb2" stroke="#924eb2" points="266.5,-195.13 263,-185.13 259.5,-195.13 266.5,-195.13"/>
<text text-anchor="middle" x="266" y="-234.4" font-family="Verdana" font-size="7.00" fill="#000000">1</text>
</g>
<!-- func1 -->
<g id="node5" class="node">
<title>func1</title>
<polygon fill="#9999e5" stroke="#9999e5" points="414,-72 332,-72 332,-32 414,-32 414,-72"/>
<text text-anchor="middle" x="373" y="-62.4" font-family="Verdana" font-size="7.00" fill="#000000">func1</text>
<text text-anchor="middle" x="373" y="-54.4" font-family="Verdana" font-size="7.00" fill="#000000">calls: 3</text>
<text text-anchor="middle" x="373" y="-46.4" font-family="Verdana" font-size="7.00" fill="#000000">time: 0.000000s</text>
<text text-anchor="middle" x="373" y="-38.4" font-family="Verdana" font-size="7.00" fill="#000000">input:(a,)</text>
</g>
<!-- main&#45;&gt;func1 -->
<g id="edge3" class="edge">
<title>main&#45;&gt;func1</title>
<path fill="none" stroke="#8a98b2" d="M292.64,-257.71C301.09,-247.55 309.71,-235.82 316,-224 337.6,-183.42 331.25,-168.55 346,-125 350.88,-110.59 356.76,-94.74 361.79,-81.59"/>
<polygon fill="#8a98b2" stroke="#8a98b2" points="365.11,-82.72 365.44,-72.13 358.58,-80.2 365.11,-82.72"/>
<text text-anchor="middle" x="349" y="-163.4" font-family="Verdana" font-size="7.00" fill="#000000">2</text>
</g>
<!-- fu1.multiply -->
<g id="node6" class="node">
<title>fu1.multiply</title>
<polygon fill="#cbdce5" stroke="#cbdce5" points="198,-185 116,-185 116,-145 198,-145 198,-185"/>
<text text-anchor="middle" x="157" y="-175.4" font-family="Verdana" font-size="7.00" fill="#000000">fu1.multiply</text>
<text text-anchor="middle" x="157" y="-167.4" font-family="Verdana" font-size="7.00" fill="#000000">calls: 1</text>
<text text-anchor="middle" x="157" y="-159.4" font-family="Verdana" font-size="7.00" fill="#000000">time: 0.000000s</text>
<text text-anchor="middle" x="157" y="-151.4" font-family="Verdana" font-size="7.00" fill="#000000">input:(a, b)</text>
</g>
<!-- main&#45;&gt;fu1.multiply -->
<g id="edge4" class="edge">
<title>main&#45;&gt;fu1.multiply</title>
<path fill="none" stroke="#9eabb2" d="M236.25,-257.96C218.97,-237.91 196.71,-212.08 180.18,-192.9"/>
<polygon fill="#9eabb2" stroke="#9eabb2" points="182.66,-190.42 173.48,-185.13 177.36,-194.99 182.66,-190.42"/>
<text text-anchor="middle" x="222" y="-234.4" font-family="Verdana" font-size="7.00" fill="#000000">1</text>
</g>
<!-- fu1.plus -->
<g id="node7" class="node">
<title>fu1.plus</title>
<polygon fill="#cbdce5" stroke="#cbdce5" points="98,-185 16,-185 16,-145 98,-145 98,-185"/>
<text text-anchor="middle" x="57" y="-175.4" font-family="Verdana" font-size="7.00" fill="#000000">fu1.plus</text>
<text text-anchor="middle" x="57" y="-167.4" font-family="Verdana" font-size="7.00" fill="#000000">calls: 1</text>
<text text-anchor="middle" x="57" y="-159.4" font-family="Verdana" font-size="7.00" fill="#000000">time: 0.000000s</text>
<text text-anchor="middle" x="57" y="-151.4" font-family="Verdana" font-size="7.00" fill="#000000">input:(a, b)</text>
</g>
<!-- main&#45;&gt;fu1.plus -->
<g id="edge5" class="edge">
<title>main&#45;&gt;fu1.plus</title>
<path fill="none" stroke="#9eabb2" d="M188.27,-265.95C161.21,-255.58 131.35,-241.65 107,-224 95.36,-215.57 84.64,-203.91 76.13,-193.26"/>
<polygon fill="#9eabb2" stroke="#9eabb2" points="78.67,-190.82 69.81,-185.02 73.11,-195.08 78.67,-190.82"/>
<text text-anchor="middle" x="134" y="-234.4" font-family="Verdana" font-size="7.00" fill="#000000">1</text>
</g>
<!-- func2 -->
<g id="node8" class="node">
<title>func2</title>
<polygon fill="#cbdce5" stroke="#cbdce5" points="509.5,-197 364.5,-197 364.5,-133 509.5,-133 509.5,-197"/>
<text text-anchor="middle" x="437" y="-187.4" font-family="Verdana" font-size="7.00" fill="#000000">func2</text>
<text text-anchor="middle" x="437" y="-179.4" font-family="Verdana" font-size="7.00" fill="#000000">calls: 1</text>
<text text-anchor="middle" x="437" y="-171.4" font-family="Verdana" font-size="7.00" fill="#000000">time: 0.000000s</text>
<text text-anchor="middle" x="437" y="-163.4" font-family="Verdana" font-size="7.00" fill="#000000">input:(a, dkjhg, ekjhg, fkjhg, gkjhg,</text>
<text text-anchor="middle" x="437" y="-155.4" font-family="Verdana" font-size="7.00" fill="#000000">hkjhg, kjhgj, kkjhg, l, zkjhg, xkjhg,</text>
<text text-anchor="middle" x="437" y="-147.4" font-family="Verdana" font-size="7.00" fill="#000000">vkjhg, nkjhg, mkjhg, kjhgy, ukjhg,</text>
<text text-anchor="middle" x="437" y="-139.4" font-family="Verdana" font-size="7.00" fill="#000000">i, o)</text>
</g>
<!-- main&#45;&gt;func2 -->
<g id="edge6" class="edge">
<title>main&#45;&gt;func2</title>
<path fill="none" stroke="#9eabb2" d="M325.36,-257.95C335.18,-252.35 345.04,-246.28 354,-240 369.2,-229.35 384.69,-216.27 398.11,-204.08"/>
<polygon fill="#9eabb2" stroke="#9eabb2" points="400.77,-206.38 405.75,-197.03 396.02,-201.23 400.77,-206.38"/>
<text text-anchor="middle" x="366" y="-234.4" font-family="Verdana" font-size="7.00" fill="#000000">1</text>
</g>
<!-- &lt;module&gt; -->
<g id="node4" class="node">
<title>&lt;module&gt;</title>
<polygon fill="#b2c3e5" stroke="#b2c3e5" points="157,-70 75,-70 75,-34 157,-34 157,-70"/>
<text text-anchor="middle" x="116" y="-58.4" font-family="Verdana" font-size="7.00" fill="#000000">&lt;module&gt;</text>
<text text-anchor="middle" x="116" y="-50.4" font-family="Verdana" font-size="7.00" fill="#000000">calls: 2</text>
<text text-anchor="middle" x="116" y="-42.4" font-family="Verdana" font-size="7.00" fill="#000000">time: 0.000000s</text>
</g>
<!-- com.c1.plus&#45;&gt;&lt;module&gt; -->
<g id="edge7" class="edge">
<title>com.c1.plus&#45;&gt;&lt;module&gt;</title>
<path fill="none" stroke="#9eabb2" d="M237.73,-144.92C212.55,-125.9 173.83,-96.67 146.85,-76.3"/>
<polygon fill="#9eabb2" stroke="#9eabb2" points="148.62,-73.25 138.53,-70.02 144.41,-78.83 148.62,-73.25"/>
<text text-anchor="middle" x="196" y="-109.4" font-family="Verdana" font-size="7.00" fill="#000000">1</text>
</g>
<!-- fu1.plus&#45;&gt;&lt;module&gt; -->
<g id="edge8" class="edge">
<title>fu1.plus&#45;&gt;&lt;module&gt;</title>
<path fill="none" stroke="#9eabb2" d="M67.14,-144.92C76.81,-126.72 91.45,-99.18 102.19,-78.99"/>
<polygon fill="#9eabb2" stroke="#9eabb2" points="105.35,-80.49 106.96,-70.02 99.17,-77.2 105.35,-80.49"/>
<text text-anchor="middle" x="90" y="-109.4" font-family="Verdana" font-size="7.00" fill="#000000">1</text>
</g>
<!-- func2&#45;&gt;func1 -->
<g id="edge9" class="edge">
<title>func2&#45;&gt;func1</title>
<path fill="none" stroke="#9eabb2" d="M419,-132.78C409.61,-116.49 398.21,-96.72 389.1,-80.93"/>
<polygon fill="#9eabb2" stroke="#9eabb2" points="392.07,-79.07 384.04,-72.15 386.01,-82.56 392.07,-79.07"/>
<text text-anchor="middle" x="409" y="-109.4" font-family="Verdana" font-size="7.00" fill="#000000">1</text>
</g>
</g>
</svg>
