<?xml version="1.0" encoding="UTF-8" standalone="no"?>
<!DOCTYPE svg PUBLIC "-//W3C//DTD SVG 1.1//EN"
 "http://www.w3.org/Graphics/SVG/1.1/DTD/svg11.dtd">
<!-- Generated by graphviz version 3.0.0 (20220226.1711)
 -->
<!-- Title: G Pages: 1 -->
<svg width="1090pt" height="1252pt"
 viewBox="0.00 0.00 1090.00 1252.00" xmlns="http://www.w3.org/2000/svg" xmlns:xlink="http://www.w3.org/1999/xlink">
<g id="graph0" class="graph" transform="scale(1 1) rotate(0) translate(4 1248)">
<title>G</title>
<polygon fill="white" stroke="transparent" points="-4,4 -4,-1248 1086,-1248 1086,4 -4,4"/>
<text text-anchor="middle" x="541" y="-6.4" font-family="Verdana" font-size="7.00" fill="#000000" fill-opacity="0.498039">Generated by Python Call Graph v1.1.3</text>
<g id="clust4" class="cluster">
<title>cluster_CalSABRFormulaVolatilityModel</title>
<polygon fill="none" stroke="#000000" stroke-width="2" stroke-opacity="0.800000" points="8,-24 8,-428 896,-428 896,-24 8,-24"/>
<text text-anchor="middle" x="452" y="-416" font-family="Verdana" font-size="10.00">CalSABRFormulaVolatilityModel</text>
</g>
<g id="clust1" class="cluster">
<title>cluster___main__</title>
<polygon fill="none" stroke="#000000" stroke-width="2" stroke-opacity="0.800000" points="544,-1165 544,-1236 642,-1236 642,-1165 544,-1165"/>
<text text-anchor="middle" x="593" y="-1224" font-family="Verdana" font-size="10.00">__main__</text>
</g>
<g id="clust5" class="cluster">
<title>cluster_CalBestParamModel</title>
<polygon fill="none" stroke="#000000" stroke-width="2" stroke-opacity="0.800000" points="198,-454 198,-693 514,-693 514,-454 198,-454"/>
<text text-anchor="middle" x="356" y="-681" font-family="Verdana" font-size="10.00">CalBestParamModel</text>
</g>
<g id="clust3" class="cluster">
<title>cluster_CalParamEndSABRModel</title>
<polygon fill="none" stroke="#000000" stroke-width="2" stroke-opacity="0.800000" points="287,-719 287,-1014 909,-1014 909,-719 287,-719"/>
<text text-anchor="middle" x="598" y="-1002" font-family="Verdana" font-size="10.00">CalParamEndSABRModel</text>
</g>
<g id="clust2" class="cluster">
<title>cluster_GetUISABRModel</title>
<polygon fill="none" stroke="#000000" stroke-width="2" stroke-opacity="0.800000" points="511,-1040 511,-1139 675,-1139 675,-1040 511,-1040"/>
<text text-anchor="middle" x="593" y="-1127" font-family="Verdana" font-size="10.00">GetUISABRModel</text>
</g>
<g id="clust6" class="cluster">
<title>cluster_OptionPriceModel</title>
<polygon fill="none" stroke="#000000" stroke-width="2" stroke-opacity="0.800000" points="904,-40 904,-131 1074,-131 1074,-40 904,-40"/>
<text text-anchor="middle" x="989" y="-119" font-family="Verdana" font-size="10.00">OptionPriceModel</text>
</g>
<!-- __main__ -->
<g id="node1" class="node">
<title>__main__</title>
<polygon fill="#e5e5e5" stroke="#e5e5e5" points="634,-1209 552,-1209 552,-1173 634,-1173 634,-1209"/>
<text text-anchor="middle" x="593" y="-1197.4" font-family="Verdana" font-size="7.00" fill="#000000">__main__</text>
<text text-anchor="middle" x="593" y="-1189.4" font-family="Verdana" font-size="7.00" fill="#000000">calls: 1</text>
<text text-anchor="middle" x="593" y="-1181.4" font-family="Verdana" font-size="7.00" fill="#000000">time: 0.000000s</text>
</g>
<!-- GetUISABRModel -->
<g id="node2" class="node">
<title>GetUISABRModel</title>
<polygon fill="#e54ce5" stroke="#e54ce5" points="667,-1112 519,-1112 519,-1048 667,-1048 667,-1112"/>
<text text-anchor="middle" x="593" y="-1102.4" font-family="Verdana" font-size="7.00" fill="#000000">GetUISABRModel</text>
<text text-anchor="middle" x="593" y="-1094.4" font-family="Verdana" font-size="7.00" fill="#000000">calls: 1</text>
<text text-anchor="middle" x="593" y="-1086.4" font-family="Verdana" font-size="7.00" fill="#000000">time: 1.273793s</text>
<text text-anchor="middle" x="593" y="-1078.4" font-family="Verdana" font-size="7.00" fill="#000000">input:(calibration_method,</text>
<text text-anchor="middle" x="593" y="-1070.4" font-family="Verdana" font-size="7.00" fill="#000000">sabr_formula, option_type,</text>
<text text-anchor="middle" x="593" y="-1062.4" font-family="Verdana" font-size="7.00" fill="#000000">exercise_time, time, forward_price,</text>
<text text-anchor="middle" x="593" y="-1054.4" font-family="Verdana" font-size="7.00" fill="#000000">strike, market_vol)</text>
</g>
<!-- __main__&#45;&gt;GetUISABRModel -->
<g id="edge1" class="edge">
<title>__main__&#45;&gt;GetUISABRModel</title>
<path fill="none" stroke="#b23bb2" d="M593,-1172.97C593,-1159.45 593,-1139.98 593,-1122.43"/>
<polygon fill="#b23bb2" stroke="#b23bb2" points="596.5,-1122.38 593,-1112.38 589.5,-1122.38 596.5,-1122.38"/>
<text text-anchor="middle" x="596" y="-1149.4" font-family="Verdana" font-size="7.00" fill="#000000">1</text>
</g>
<!-- CalParamEndSABRModel.CalParamEndResult -->
<g id="node3" class="node">
<title>CalParamEndSABRModel.CalParamEndResult</title>
<polygon fill="#e54ce5" stroke="#e54ce5" points="687.5,-987 498.5,-987 498.5,-875 687.5,-875 687.5,-987"/>
<text text-anchor="middle" x="593" y="-977.4" font-family="Verdana" font-size="7.00" fill="#000000">CalParamEndSABRModel.CalParamEndResult</text>
<text text-anchor="middle" x="593" y="-969.4" font-family="Verdana" font-size="7.00" fill="#000000">calls: 1</text>
<text text-anchor="middle" x="593" y="-961.4" font-family="Verdana" font-size="7.00" fill="#000000">time: 1.273793s</text>
<text text-anchor="middle" x="593" y="-953.4" font-family="Verdana" font-size="7.00" fill="#000000">input:(alpha_begin, beta_begin,</text>
<text text-anchor="middle" x="593" y="-945.4" font-family="Verdana" font-size="7.00" fill="#000000">rho_begin, nu_begin, option_type,</text>
<text text-anchor="middle" x="593" y="-937.4" font-family="Verdana" font-size="7.00" fill="#000000">exercise_time, time, forward_price,</text>
<text text-anchor="middle" x="593" y="-929.4" font-family="Verdana" font-size="7.00" fill="#000000">strike, market_vol, calibration_method,</text>
<text text-anchor="middle" x="593" y="-921.4" font-family="Verdana" font-size="7.00" fill="#000000">sabr_formula, solver,</text>
<text text-anchor="middle" x="593" y="-913.4" font-family="Verdana" font-size="7.00" fill="#000000">maxiter_calibration, calibration_beta,</text>
<text text-anchor="middle" x="593" y="-905.4" font-family="Verdana" font-size="7.00" fill="#000000">minimal_time_step_count,</text>
<text text-anchor="middle" x="593" y="-897.4" font-family="Verdana" font-size="7.00" fill="#000000">underlying_step_count,</text>
<text text-anchor="middle" x="593" y="-889.4" font-family="Verdana" font-size="7.00" fill="#000000">variance_step_count,</text>
<text text-anchor="middle" x="593" y="-881.4" font-family="Verdana" font-size="7.00" fill="#000000">time_step_count_per_year)</text>
</g>
<!-- GetUISABRModel&#45;&gt;CalParamEndSABRModel.CalParamEndResult -->
<g id="edge2" class="edge">
<title>GetUISABRModel&#45;&gt;CalParamEndSABRModel.CalParamEndResult</title>
<path fill="none" stroke="#b23bb2" d="M593,-1047.83C593,-1033.1 593,-1014.94 593,-997.4"/>
<polygon fill="#b23bb2" stroke="#b23bb2" points="596.5,-997.18 593,-987.18 589.5,-997.18 596.5,-997.18"/>
<text text-anchor="middle" x="596" y="-1024.4" font-family="Verdana" font-size="7.00" fill="#000000">1</text>
</g>
<!-- CalParamEndSABRModel.FromUserInputResult -->
<g id="node4" class="node">
<title>CalParamEndSABRModel.FromUserInputResult</title>
<polygon fill="#e4e5e5" stroke="#e4e5e5" points="900.5,-823 705.5,-823 705.5,-735 900.5,-735 900.5,-823"/>
<text text-anchor="middle" x="803" y="-813.4" font-family="Verdana" font-size="7.00" fill="#000000">CalParamEndSABRModel.FromUserInputResult</text>
<text text-anchor="middle" x="803" y="-805.4" font-family="Verdana" font-size="7.00" fill="#000000">calls: 1</text>
<text text-anchor="middle" x="803" y="-797.4" font-family="Verdana" font-size="7.00" fill="#000000">time: 0.011283s</text>
<text text-anchor="middle" x="803" y="-789.4" font-family="Verdana" font-size="7.00" fill="#000000">input:(alpha_begin, beta_begin,</text>
<text text-anchor="middle" x="803" y="-781.4" font-family="Verdana" font-size="7.00" fill="#000000">rho_begin, nu_begin, time,</text>
<text text-anchor="middle" x="803" y="-773.4" font-family="Verdana" font-size="7.00" fill="#000000">forward_price, strike, sabr_formula,</text>
<text text-anchor="middle" x="803" y="-765.4" font-family="Verdana" font-size="7.00" fill="#000000">minimal_time_step_count,</text>
<text text-anchor="middle" x="803" y="-757.4" font-family="Verdana" font-size="7.00" fill="#000000">underlying_step_count,</text>
<text text-anchor="middle" x="803" y="-749.4" font-family="Verdana" font-size="7.00" fill="#000000">variance_step_count,</text>
<text text-anchor="middle" x="803" y="-741.4" font-family="Verdana" font-size="7.00" fill="#000000">time_step_count_per_year)</text>
</g>
<!-- CalParamEndSABRModel.CalParamEndResult&#45;&gt;CalParamEndSABRModel.FromUserInputResult -->
<g id="edge3" class="edge">
<title>CalParamEndSABRModel.CalParamEndResult&#45;&gt;CalParamEndSABRModel.FromUserInputResult</title>
<path fill="none" stroke="#b1b2b2" d="M670,-875C691.09,-859.93 713.81,-843.71 734.4,-829"/>
<polygon fill="#b1b2b2" stroke="#b1b2b2" points="736.67,-831.68 742.78,-823.02 732.6,-825.98 736.67,-831.68"/>
<text text-anchor="middle" x="707" y="-851.4" font-family="Verdana" font-size="7.00" fill="#000000">1</text>
</g>
<!-- CalParamEndSABRModel.FromVolatilitySmile -->
<g id="node5" class="node">
<title>CalParamEndSABRModel.FromVolatilitySmile</title>
<polygon fill="#9a8ee5" stroke="#9a8ee5" points="687,-831 499,-831 499,-727 687,-727 687,-831"/>
<text text-anchor="middle" x="593" y="-821.4" font-family="Verdana" font-size="7.00" fill="#000000">CalParamEndSABRModel.FromVolatilitySmile</text>
<text text-anchor="middle" x="593" y="-813.4" font-family="Verdana" font-size="7.00" fill="#000000">calls: 1</text>
<text text-anchor="middle" x="593" y="-805.4" font-family="Verdana" font-size="7.00" fill="#000000">time: 0.725402s</text>
<text text-anchor="middle" x="593" y="-797.4" font-family="Verdana" font-size="7.00" fill="#000000">input:(alpha_begin, beta_begin,</text>
<text text-anchor="middle" x="593" y="-789.4" font-family="Verdana" font-size="7.00" fill="#000000">rho_begin, nu_begin, option_type,</text>
<text text-anchor="middle" x="593" y="-781.4" font-family="Verdana" font-size="7.00" fill="#000000">exercise_time, time, forward_price,</text>
<text text-anchor="middle" x="593" y="-773.4" font-family="Verdana" font-size="7.00" fill="#000000">strike, market_vol, sabr_formula,</text>
<text text-anchor="middle" x="593" y="-765.4" font-family="Verdana" font-size="7.00" fill="#000000">solver, maxiter_calibration,</text>
<text text-anchor="middle" x="593" y="-757.4" font-family="Verdana" font-size="7.00" fill="#000000">calibration_beta, minimal_time_step_count,</text>
<text text-anchor="middle" x="593" y="-749.4" font-family="Verdana" font-size="7.00" fill="#000000">underlying_step_count,</text>
<text text-anchor="middle" x="593" y="-741.4" font-family="Verdana" font-size="7.00" fill="#000000">variance_step_count,</text>
<text text-anchor="middle" x="593" y="-733.4" font-family="Verdana" font-size="7.00" fill="#000000">time_step_count_per_year)</text>
</g>
<!-- CalParamEndSABRModel.CalParamEndResult&#45;&gt;CalParamEndSABRModel.FromVolatilitySmile -->
<g id="edge4" class="edge">
<title>CalParamEndSABRModel.CalParamEndResult&#45;&gt;CalParamEndSABRModel.FromVolatilitySmile</title>
<path fill="none" stroke="#786eb2" d="M593,-875C593,-863.99 593,-852.36 593,-841.15"/>
<polygon fill="#786eb2" stroke="#786eb2" points="596.5,-841.01 593,-831.01 589.5,-841.01 596.5,-841.01"/>
<text text-anchor="middle" x="596" y="-851.4" font-family="Verdana" font-size="7.00" fill="#000000">1</text>
</g>
<!-- CalParamEndSABRModel.CalibrateonlyAlpha -->
<g id="node6" class="node">
<title>CalParamEndSABRModel.CalibrateonlyAlpha</title>
<polygon fill="#a4afe5" stroke="#a4afe5" points="481,-831 295,-831 295,-727 481,-727 481,-831"/>
<text text-anchor="middle" x="388" y="-821.4" font-family="Verdana" font-size="7.00" fill="#000000">CalParamEndSABRModel.CalibrateonlyAlpha</text>
<text text-anchor="middle" x="388" y="-813.4" font-family="Verdana" font-size="7.00" fill="#000000">calls: 1</text>
<text text-anchor="middle" x="388" y="-805.4" font-family="Verdana" font-size="7.00" fill="#000000">time: 0.537107s</text>
<text text-anchor="middle" x="388" y="-797.4" font-family="Verdana" font-size="7.00" fill="#000000">input:(alpha_begin, beta_begin,</text>
<text text-anchor="middle" x="388" y="-789.4" font-family="Verdana" font-size="7.00" fill="#000000">rho_begin, nu_begin, option_type,</text>
<text text-anchor="middle" x="388" y="-781.4" font-family="Verdana" font-size="7.00" fill="#000000">exercise_time, time, forward_price,</text>
<text text-anchor="middle" x="388" y="-773.4" font-family="Verdana" font-size="7.00" fill="#000000">strike, market_vol, sabr_formula,</text>
<text text-anchor="middle" x="388" y="-765.4" font-family="Verdana" font-size="7.00" fill="#000000">solver, maxiter_calibration,</text>
<text text-anchor="middle" x="388" y="-757.4" font-family="Verdana" font-size="7.00" fill="#000000">minimal_time_step_count,</text>
<text text-anchor="middle" x="388" y="-749.4" font-family="Verdana" font-size="7.00" fill="#000000">underlying_step_count,</text>
<text text-anchor="middle" x="388" y="-741.4" font-family="Verdana" font-size="7.00" fill="#000000">variance_step_count,</text>
<text text-anchor="middle" x="388" y="-733.4" font-family="Verdana" font-size="7.00" fill="#000000">time_step_count_per_year)</text>
</g>
<!-- CalParamEndSABRModel.CalParamEndResult&#45;&gt;CalParamEndSABRModel.CalibrateonlyAlpha -->
<g id="edge5" class="edge">
<title>CalParamEndSABRModel.CalParamEndResult&#45;&gt;CalParamEndSABRModel.CalibrateonlyAlpha</title>
<path fill="none" stroke="#8088b2" d="M517.83,-875C500.94,-862.64 482.98,-849.5 465.98,-837.06"/>
<polygon fill="#8088b2" stroke="#8088b2" points="467.85,-834.09 457.72,-831.01 463.72,-839.74 467.85,-834.09"/>
<text text-anchor="middle" x="493" y="-851.4" font-family="Verdana" font-size="7.00" fill="#000000">1</text>
</g>
<!-- CalSABRFormulaVolatilityModel.CalVolatilityProcess -->
<g id="node7" class="node">
<title>CalSABRFormulaVolatilityModel.CalVolatilityProcess</title>
<polygon fill="#9c88e5" stroke="#9c88e5" points="655,-253 437,-253 437,-165 655,-165 655,-253"/>
<text text-anchor="middle" x="546" y="-243.4" font-family="Verdana" font-size="7.00" fill="#000000">CalSABRFormulaVolatilityModel.CalVolatilityProcess</text>
<text text-anchor="middle" x="546" y="-235.4" font-family="Verdana" font-size="7.00" fill="#000000">calls: 4,836</text>
<text text-anchor="middle" x="546" y="-227.4" font-family="Verdana" font-size="7.00" fill="#000000">time: 0.454957s</text>
<text text-anchor="middle" x="546" y="-219.4" font-family="Verdana" font-size="7.00" fill="#000000">input:(alpha_point, beta_point,</text>
<text text-anchor="middle" x="546" y="-211.4" font-family="Verdana" font-size="7.00" fill="#000000">rho_point, nu_point, time,</text>
<text text-anchor="middle" x="546" y="-203.4" font-family="Verdana" font-size="7.00" fill="#000000">forward_price, strike, sabr_formula,</text>
<text text-anchor="middle" x="546" y="-195.4" font-family="Verdana" font-size="7.00" fill="#000000">minimal_time_step_count,</text>
<text text-anchor="middle" x="546" y="-187.4" font-family="Verdana" font-size="7.00" fill="#000000">underlying_step_count,</text>
<text text-anchor="middle" x="546" y="-179.4" font-family="Verdana" font-size="7.00" fill="#000000">variance_step_count,</text>
<text text-anchor="middle" x="546" y="-171.4" font-family="Verdana" font-size="7.00" fill="#000000">time_step_count_per_year)</text>
</g>
<!-- CalParamEndSABRModel.FromUserInputResult&#45;&gt;CalSABRFormulaVolatilityModel.CalVolatilityProcess -->
<g id="edge6" class="edge">
<title>CalParamEndSABRModel.FromUserInputResult&#45;&gt;CalSABRFormulaVolatilityModel.CalVolatilityProcess</title>
<path fill="none" stroke="#8794b2" d="M768.22,-734.75C745.88,-702.58 721,-656.54 721,-611 721,-611 721,-611 721,-348 721,-309.64 694.75,-280.3 662.59,-258.74"/>
<polygon fill="#8794b2" stroke="#8794b2" points="664.15,-255.58 653.84,-253.14 660.38,-261.48 664.15,-255.58"/>
<text text-anchor="middle" x="726.5" y="-484.4" font-family="Verdana" font-size="7.00" fill="#000000">12</text>
</g>
<!-- CalParamEndSABRModel.FromVolatilitySmile&#45;&gt;CalSABRFormulaVolatilityModel.CalVolatilityProcess -->
<g id="edge12" class="edge">
<title>CalParamEndSABRModel.FromVolatilitySmile&#45;&gt;CalSABRFormulaVolatilityModel.CalVolatilityProcess</title>
<path fill="none" stroke="#8794b2" d="M593,-726.84C593,-693.79 593,-649.85 593,-611 593,-611 593,-611 593,-348 593,-318.71 583.4,-287.71 572.87,-262.52"/>
<polygon fill="#8794b2" stroke="#8794b2" points="576,-260.94 568.81,-253.17 569.58,-263.73 576,-260.94"/>
<text text-anchor="middle" x="598.5" y="-484.4" font-family="Verdana" font-size="7.00" fill="#000000">12</text>
</g>
<!-- CalBestParamModel.CalBestParamResult -->
<g id="node14" class="node">
<title>CalBestParamModel.CalBestParamResult</title>
<polygon fill="#e04ee5" stroke="#e04ee5" points="497.5,-666 324.5,-666 324.5,-554 497.5,-554 497.5,-666"/>
<text text-anchor="middle" x="411" y="-656.4" font-family="Verdana" font-size="7.00" fill="#000000">CalBestParamModel.CalBestParamResult</text>
<text text-anchor="middle" x="411" y="-648.4" font-family="Verdana" font-size="7.00" fill="#000000">calls: 24</text>
<text text-anchor="middle" x="411" y="-640.4" font-family="Verdana" font-size="7.00" fill="#000000">time: 1.252115s</text>
<text text-anchor="middle" x="411" y="-632.4" font-family="Verdana" font-size="7.00" fill="#000000">input:(alpha_begin, beta_begin,</text>
<text text-anchor="middle" x="411" y="-624.4" font-family="Verdana" font-size="7.00" fill="#000000">rho_begin, nu_begin, sabr_formula,</text>
<text text-anchor="middle" x="411" y="-616.4" font-family="Verdana" font-size="7.00" fill="#000000">solver, maxiter_calibration,</text>
<text text-anchor="middle" x="411" y="-608.4" font-family="Verdana" font-size="7.00" fill="#000000">calibration_beta, option_type,</text>
<text text-anchor="middle" x="411" y="-600.4" font-family="Verdana" font-size="7.00" fill="#000000">exercise_time, time, forward_price,</text>
<text text-anchor="middle" x="411" y="-592.4" font-family="Verdana" font-size="7.00" fill="#000000">strike, market_vol, risk_free_interest,</text>
<text text-anchor="middle" x="411" y="-584.4" font-family="Verdana" font-size="7.00" fill="#000000">epsilon, minimal_time_step_count,</text>
<text text-anchor="middle" x="411" y="-576.4" font-family="Verdana" font-size="7.00" fill="#000000">underlying_step_count,</text>
<text text-anchor="middle" x="411" y="-568.4" font-family="Verdana" font-size="7.00" fill="#000000">variance_step_count,</text>
<text text-anchor="middle" x="411" y="-560.4" font-family="Verdana" font-size="7.00" fill="#000000">time_step_count_per_year)</text>
</g>
<!-- CalParamEndSABRModel.FromVolatilitySmile&#45;&gt;CalBestParamModel.CalBestParamResult -->
<g id="edge11" class="edge">
<title>CalParamEndSABRModel.FromVolatilitySmile&#45;&gt;CalBestParamModel.CalBestParamResult</title>
<path fill="none" stroke="#ae3db2" d="M537.41,-726.99C518.86,-709.97 497.98,-690.81 478.62,-673.05"/>
<polygon fill="#ae3db2" stroke="#ae3db2" points="480.73,-670.24 471,-666.05 476,-675.39 480.73,-670.24"/>
<text text-anchor="middle" x="517.5" y="-703.4" font-family="Verdana" font-size="7.00" fill="#000000">12</text>
</g>
<!-- CalParamEndSABRModel.CalibrateonlyAlpha&#45;&gt;CalSABRFormulaVolatilityModel.CalVolatilityProcess -->
<g id="edge21" class="edge">
<title>CalParamEndSABRModel.CalibrateonlyAlpha&#45;&gt;CalSABRFormulaVolatilityModel.CalVolatilityProcess</title>
<path fill="none" stroke="#8794b2" d="M472.59,-726.89C478.4,-724.06 484.24,-721.4 490,-719 505.73,-712.46 515.4,-721.47 527,-709 557.21,-676.51 546,-655.37 546,-611 546,-611 546,-611 546,-348 546,-320.1 546,-289.03 546,-263.44"/>
<polygon fill="#8794b2" stroke="#8794b2" points="549.5,-263.2 546,-253.2 542.5,-263.2 549.5,-263.2"/>
<text text-anchor="middle" x="551.5" y="-484.4" font-family="Verdana" font-size="7.00" fill="#000000">12</text>
</g>
<!-- CalParamEndSABRModel.CalibrateonlyAlpha&#45;&gt;CalBestParamModel.CalBestParamResult -->
<g id="edge20" class="edge">
<title>CalParamEndSABRModel.CalibrateonlyAlpha&#45;&gt;CalBestParamModel.CalBestParamResult</title>
<path fill="none" stroke="#ae3db2" d="M395.03,-726.99C397.22,-711.02 399.68,-693.18 402,-676.36"/>
<polygon fill="#ae3db2" stroke="#ae3db2" points="405.52,-676.44 403.42,-666.05 398.59,-675.48 405.52,-676.44"/>
<text text-anchor="middle" x="403.5" y="-703.4" font-family="Verdana" font-size="7.00" fill="#000000">12</text>
</g>
<!-- CalSABRFormulaVolatilityModel.HaganModel -->
<g id="node8" class="node">
<title>CalSABRFormulaVolatilityModel.HaganModel</title>
<polygon fill="#bbcee5" stroke="#bbcee5" points="639.5,-104 452.5,-104 452.5,-48 639.5,-48 639.5,-104"/>
<text text-anchor="middle" x="546" y="-94.4" font-family="Verdana" font-size="7.00" fill="#000000">CalSABRFormulaVolatilityModel.HaganModel</text>
<text text-anchor="middle" x="546" y="-86.4" font-family="Verdana" font-size="7.00" fill="#000000">calls: 4,836</text>
<text text-anchor="middle" x="546" y="-78.4" font-family="Verdana" font-size="7.00" fill="#000000">time: 0.030973s</text>
<text text-anchor="middle" x="546" y="-70.4" font-family="Verdana" font-size="7.00" fill="#000000">input:(alpha_point, beta_point,</text>
<text text-anchor="middle" x="546" y="-62.4" font-family="Verdana" font-size="7.00" fill="#000000">rho_point, nu_point, time,</text>
<text text-anchor="middle" x="546" y="-54.4" font-family="Verdana" font-size="7.00" fill="#000000">forward_price, strike)</text>
</g>
<!-- CalSABRFormulaVolatilityModel.CalVolatilityProcess&#45;&gt;CalSABRFormulaVolatilityModel.HaganModel -->
<g id="edge7" class="edge">
<title>CalSABRFormulaVolatilityModel.CalVolatilityProcess&#45;&gt;CalSABRFormulaVolatilityModel.HaganModel</title>
<path fill="none" stroke="#91a0b2" d="M546,-164.74C546,-148.51 546,-130.22 546,-114.55"/>
<polygon fill="#91a0b2" stroke="#91a0b2" points="549.5,-114.18 546,-104.18 542.5,-114.18 549.5,-114.18"/>
<text text-anchor="middle" x="557" y="-141.4" font-family="Verdana" font-size="7.00" fill="#000000">4836</text>
</g>
<!-- CalSABRFormulaVolatilityModel.BetterExpansionsModel -->
<g id="node9" class="node">
<title>CalSABRFormulaVolatilityModel.BetterExpansionsModel</title>
<polygon fill="#b6c8e5" stroke="#b6c8e5" points="888,-104 658,-104 658,-48 888,-48 888,-104"/>
<text text-anchor="middle" x="773" y="-94.4" font-family="Verdana" font-size="7.00" fill="#000000">CalSABRFormulaVolatilityModel.BetterExpansionsModel</text>
<text text-anchor="middle" x="773" y="-86.4" font-family="Verdana" font-size="7.00" fill="#000000">calls: 4,836</text>
<text text-anchor="middle" x="773" y="-78.4" font-family="Verdana" font-size="7.00" fill="#000000">time: 0.073071s</text>
<text text-anchor="middle" x="773" y="-70.4" font-family="Verdana" font-size="7.00" fill="#000000">input:(alpha_point, beta_point,</text>
<text text-anchor="middle" x="773" y="-62.4" font-family="Verdana" font-size="7.00" fill="#000000">rho_point, nu_point, time,</text>
<text text-anchor="middle" x="773" y="-54.4" font-family="Verdana" font-size="7.00" fill="#000000">forward_price, strike)</text>
</g>
<!-- CalSABRFormulaVolatilityModel.CalVolatilityProcess&#45;&gt;CalSABRFormulaVolatilityModel.BetterExpansionsModel -->
<g id="edge8" class="edge">
<title>CalSABRFormulaVolatilityModel.CalVolatilityProcess&#45;&gt;CalSABRFormulaVolatilityModel.BetterExpansionsModel</title>
<path fill="none" stroke="#8d9bb2" d="M620.64,-164.92C652.14,-146.74 688.19,-125.94 717.31,-109.14"/>
<polygon fill="#8d9bb2" stroke="#8d9bb2" points="719.2,-112.09 726.11,-104.06 715.7,-106.03 719.2,-112.09"/>
<text text-anchor="middle" x="670" y="-141.4" font-family="Verdana" font-size="7.00" fill="#000000">4836</text>
</g>
<!-- CalSABRFormulaVolatilityModel.PDEModel -->
<g id="node10" class="node">
<title>CalSABRFormulaVolatilityModel.PDEModel</title>
<polygon fill="#b8cbe5" stroke="#b8cbe5" points="195.5,-120 16.5,-120 16.5,-32 195.5,-32 195.5,-120"/>
<text text-anchor="middle" x="106" y="-110.4" font-family="Verdana" font-size="7.00" fill="#000000">CalSABRFormulaVolatilityModel.PDEModel</text>
<text text-anchor="middle" x="106" y="-102.4" font-family="Verdana" font-size="7.00" fill="#000000">calls: 4,836</text>
<text text-anchor="middle" x="106" y="-94.4" font-family="Verdana" font-size="7.00" fill="#000000">time: 0.051695s</text>
<text text-anchor="middle" x="106" y="-86.4" font-family="Verdana" font-size="7.00" fill="#000000">input:(alpha_point, beta_point,</text>
<text text-anchor="middle" x="106" y="-78.4" font-family="Verdana" font-size="7.00" fill="#000000">rho_point, nu_point, time,</text>
<text text-anchor="middle" x="106" y="-70.4" font-family="Verdana" font-size="7.00" fill="#000000">forward_price, strike,</text>
<text text-anchor="middle" x="106" y="-62.4" font-family="Verdana" font-size="7.00" fill="#000000">minimal_time_step_count,</text>
<text text-anchor="middle" x="106" y="-54.4" font-family="Verdana" font-size="7.00" fill="#000000">underlying_step_count,</text>
<text text-anchor="middle" x="106" y="-46.4" font-family="Verdana" font-size="7.00" fill="#000000">variance_step_count,</text>
<text text-anchor="middle" x="106" y="-38.4" font-family="Verdana" font-size="7.00" fill="#000000">time_step_count_per_year)</text>
</g>
<!-- CalSABRFormulaVolatilityModel.CalVolatilityProcess&#45;&gt;CalSABRFormulaVolatilityModel.PDEModel -->
<g id="edge9" class="edge">
<title>CalSABRFormulaVolatilityModel.CalVolatilityProcess&#45;&gt;CalSABRFormulaVolatilityModel.PDEModel</title>
<path fill="none" stroke="#8f9eb2" d="M436.64,-191.28C368.61,-178.94 280.1,-159.33 205,-131 199.79,-129.03 194.52,-126.84 189.26,-124.49"/>
<polygon fill="#8f9eb2" stroke="#8f9eb2" points="190.37,-121.15 179.82,-120.11 187.42,-127.5 190.37,-121.15"/>
<text text-anchor="middle" x="260" y="-141.4" font-family="Verdana" font-size="7.00" fill="#000000">4836</text>
</g>
<!-- CalSABRFormulaVolatilityModel.MixOrder2PDEModel -->
<g id="node11" class="node">
<title>CalSABRFormulaVolatilityModel.MixOrder2PDEModel</title>
<polygon fill="#bacce5" stroke="#bacce5" points="434,-120 214,-120 214,-32 434,-32 434,-120"/>
<text text-anchor="middle" x="324" y="-110.4" font-family="Verdana" font-size="7.00" fill="#000000">CalSABRFormulaVolatilityModel.MixOrder2PDEModel</text>
<text text-anchor="middle" x="324" y="-102.4" font-family="Verdana" font-size="7.00" fill="#000000">calls: 4,836</text>
<text text-anchor="middle" x="324" y="-94.4" font-family="Verdana" font-size="7.00" fill="#000000">time: 0.040883s</text>
<text text-anchor="middle" x="324" y="-86.4" font-family="Verdana" font-size="7.00" fill="#000000">input:(alpha_point, beta_point,</text>
<text text-anchor="middle" x="324" y="-78.4" font-family="Verdana" font-size="7.00" fill="#000000">rho_point, nu_point, time,</text>
<text text-anchor="middle" x="324" y="-70.4" font-family="Verdana" font-size="7.00" fill="#000000">forward_price, strike,</text>
<text text-anchor="middle" x="324" y="-62.4" font-family="Verdana" font-size="7.00" fill="#000000">minimal_time_step_count,</text>
<text text-anchor="middle" x="324" y="-54.4" font-family="Verdana" font-size="7.00" fill="#000000">underlying_step_count,</text>
<text text-anchor="middle" x="324" y="-46.4" font-family="Verdana" font-size="7.00" fill="#000000">variance_step_count,</text>
<text text-anchor="middle" x="324" y="-38.4" font-family="Verdana" font-size="7.00" fill="#000000">time_step_count_per_year)</text>
</g>
<!-- CalSABRFormulaVolatilityModel.CalVolatilityProcess&#45;&gt;CalSABRFormulaVolatilityModel.MixOrder2PDEModel -->
<g id="edge10" class="edge">
<title>CalSABRFormulaVolatilityModel.CalVolatilityProcess&#45;&gt;CalSABRFormulaVolatilityModel.MixOrder2PDEModel</title>
<path fill="none" stroke="#909fb2" d="M473,-164.92C451.47,-152.22 427.77,-138.23 405.72,-125.22"/>
<polygon fill="#909fb2" stroke="#909fb2" points="407.43,-122.17 397.04,-120.1 403.88,-128.2 407.43,-122.17"/>
<text text-anchor="middle" x="452" y="-141.4" font-family="Verdana" font-size="7.00" fill="#000000">4836</text>
</g>
<!-- CalSABRFormulaVolatilityModel.TargetModel -->
<g id="node12" class="node">
<title>CalSABRFormulaVolatilityModel.TargetModel</title>
<polygon fill="#e52f9f" stroke="#e52f9f" points="518,-401 330,-401 330,-297 518,-297 518,-401"/>
<text text-anchor="middle" x="424" y="-391.4" font-family="Verdana" font-size="7.00" fill="#000000">CalSABRFormulaVolatilityModel.TargetModel</text>
<text text-anchor="middle" x="424" y="-383.4" font-family="Verdana" font-size="7.00" fill="#000000">calls: 4,800</text>
<text text-anchor="middle" x="424" y="-375.4" font-family="Verdana" font-size="7.00" fill="#000000">time: 1.200569s</text>
<text text-anchor="middle" x="424" y="-367.4" font-family="Verdana" font-size="7.00" fill="#000000">input:(alpha_point, beta_point,</text>
<text text-anchor="middle" x="424" y="-359.4" font-family="Verdana" font-size="7.00" fill="#000000">rho_point, nu_point, option_type,</text>
<text text-anchor="middle" x="424" y="-351.4" font-family="Verdana" font-size="7.00" fill="#000000">exercise_time, time, forward_price,</text>
<text text-anchor="middle" x="424" y="-343.4" font-family="Verdana" font-size="7.00" fill="#000000">strike, market_vol, risk_free_interest,</text>
<text text-anchor="middle" x="424" y="-335.4" font-family="Verdana" font-size="7.00" fill="#000000">epsilon, sabr_formula,</text>
<text text-anchor="middle" x="424" y="-327.4" font-family="Verdana" font-size="7.00" fill="#000000">minimal_time_step_count,</text>
<text text-anchor="middle" x="424" y="-319.4" font-family="Verdana" font-size="7.00" fill="#000000">underlying_step_count,</text>
<text text-anchor="middle" x="424" y="-311.4" font-family="Verdana" font-size="7.00" fill="#000000">variance_step_count,</text>
<text text-anchor="middle" x="424" y="-303.4" font-family="Verdana" font-size="7.00" fill="#000000">time_step_count_per_year)</text>
</g>
<!-- CalSABRFormulaVolatilityModel.TargetModel&#45;&gt;CalSABRFormulaVolatilityModel.CalVolatilityProcess -->
<g id="edge17" class="edge">
<title>CalSABRFormulaVolatilityModel.TargetModel&#45;&gt;CalSABRFormulaVolatilityModel.CalVolatilityProcess</title>
<path fill="none" stroke="#796ab2" d="M432.02,-296.98C435.06,-287.74 439.24,-278.63 445,-271 447.93,-267.12 451.19,-263.43 454.69,-259.94"/>
<polygon fill="#796ab2" stroke="#796ab2" points="457.19,-262.38 462.17,-253.03 452.45,-257.24 457.19,-262.38"/>
<text text-anchor="middle" x="456" y="-273.4" font-family="Verdana" font-size="7.00" fill="#000000">4800</text>
</g>
<!-- CalSABRFormulaVolatilityModel.CalBSVegaModel -->
<g id="node13" class="node">
<title>CalSABRFormulaVolatilityModel.CalBSVegaModel</title>
<polygon fill="#9f82e5" stroke="#9f82e5" points="883,-241 677,-241 677,-177 883,-177 883,-241"/>
<text text-anchor="middle" x="780" y="-231.4" font-family="Verdana" font-size="7.00" fill="#000000">CalSABRFormulaVolatilityModel.CalBSVegaModel</text>
<text text-anchor="middle" x="780" y="-223.4" font-family="Verdana" font-size="7.00" fill="#000000">calls: 4,800</text>
<text text-anchor="middle" x="780" y="-215.4" font-family="Verdana" font-size="7.00" fill="#000000">time: 0.503980s</text>
<text text-anchor="middle" x="780" y="-207.4" font-family="Verdana" font-size="7.00" fill="#000000">input:(option_type, exercise_time,</text>
<text text-anchor="middle" x="780" y="-199.4" font-family="Verdana" font-size="7.00" fill="#000000">time, forward_price, strike,</text>
<text text-anchor="middle" x="780" y="-191.4" font-family="Verdana" font-size="7.00" fill="#000000">market_vol, risk_free_interest,</text>
<text text-anchor="middle" x="780" y="-183.4" font-family="Verdana" font-size="7.00" fill="#000000">epsilon)</text>
</g>
<!-- CalSABRFormulaVolatilityModel.TargetModel&#45;&gt;CalSABRFormulaVolatilityModel.CalBSVegaModel -->
<g id="edge16" class="edge">
<title>CalSABRFormulaVolatilityModel.TargetModel&#45;&gt;CalSABRFormulaVolatilityModel.CalBSVegaModel</title>
<path fill="none" stroke="#7c65b2" d="M518,-311.56C571.44,-290.85 637.99,-265.05 690.64,-244.64"/>
<polygon fill="#7c65b2" stroke="#7c65b2" points="691.91,-247.9 699.97,-241.02 689.38,-241.37 691.91,-247.9"/>
<text text-anchor="middle" x="623" y="-273.4" font-family="Verdana" font-size="7.00" fill="#000000">4800</text>
</g>
<!-- OptionPriceModel.OptionPriceModel -->
<g id="node17" class="node">
<title>OptionPriceModel.OptionPriceModel</title>
<polygon fill="#ad71e5" stroke="#ad71e5" points="1066,-104 912,-104 912,-48 1066,-48 1066,-104"/>
<text text-anchor="middle" x="989" y="-94.4" font-family="Verdana" font-size="7.00" fill="#000000">OptionPriceModel.OptionPriceModel</text>
<text text-anchor="middle" x="989" y="-86.4" font-family="Verdana" font-size="7.00" fill="#000000">calls: 9,600</text>
<text text-anchor="middle" x="989" y="-78.4" font-family="Verdana" font-size="7.00" fill="#000000">time: 0.331186s</text>
<text text-anchor="middle" x="989" y="-70.4" font-family="Verdana" font-size="7.00" fill="#000000">input:(option_type, exercise_time,</text>
<text text-anchor="middle" x="989" y="-62.4" font-family="Verdana" font-size="7.00" fill="#000000">time, forward_price, strike, vol,</text>
<text text-anchor="middle" x="989" y="-54.4" font-family="Verdana" font-size="7.00" fill="#000000">risk_free_interest)</text>
</g>
<!-- CalSABRFormulaVolatilityModel.CalBSVegaModel&#45;&gt;OptionPriceModel.OptionPriceModel -->
<g id="edge18" class="edge">
<title>CalSABRFormulaVolatilityModel.CalBSVegaModel&#45;&gt;OptionPriceModel.OptionPriceModel</title>
<path fill="none" stroke="#8758b2" d="M829.53,-176.95C862,-156.6 904.36,-130.05 937.26,-109.43"/>
<polygon fill="#8758b2" stroke="#8758b2" points="939.23,-112.33 945.84,-104.05 935.51,-106.4 939.23,-112.33"/>
<text text-anchor="middle" x="895" y="-141.4" font-family="Verdana" font-size="7.00" fill="#000000">9600</text>
</g>
<!-- CalBestParamModel.BFGSSolver -->
<g id="node15" class="node">
<title>CalBestParamModel.BFGSSolver</title>
<polygon fill="#9da1e5" stroke="#9da1e5" points="346,-510 206,-510 206,-462 346,-462 346,-510"/>
<text text-anchor="middle" x="276" y="-500.4" font-family="Verdana" font-size="7.00" fill="#000000">CalBestParamModel.BFGSSolver</text>
<text text-anchor="middle" x="276" y="-492.4" font-family="Verdana" font-size="7.00" fill="#000000">calls: 24</text>
<text text-anchor="middle" x="276" y="-484.4" font-family="Verdana" font-size="7.00" fill="#000000">time: 0.596856s</text>
<text text-anchor="middle" x="276" y="-476.4" font-family="Verdana" font-size="7.00" fill="#000000">input:(function, x0, args,</text>
<text text-anchor="middle" x="276" y="-468.4" font-family="Verdana" font-size="7.00" fill="#000000">maxiter_calibration, tol)</text>
</g>
<!-- CalBestParamModel.CalBestParamResult&#45;&gt;CalBestParamModel.BFGSSolver -->
<g id="edge13" class="edge">
<title>CalBestParamModel.CalBestParamResult&#45;&gt;CalBestParamModel.BFGSSolver</title>
<path fill="none" stroke="#7a7db2" d="M349.82,-553.71C335.86,-541.09 321.53,-528.14 309.26,-517.05"/>
<polygon fill="#7a7db2" stroke="#7a7db2" points="311.28,-514.16 301.51,-510.05 306.58,-519.36 311.28,-514.16"/>
<text text-anchor="middle" x="332.5" y="-530.4" font-family="Verdana" font-size="7.00" fill="#000000">24</text>
</g>
<!-- CalBestParamModel.OtherSolver -->
<g id="node16" class="node">
<title>CalBestParamModel.OtherSolver</title>
<polygon fill="#9996e5" stroke="#9996e5" points="505.5,-510 364.5,-510 364.5,-462 505.5,-462 505.5,-510"/>
<text text-anchor="middle" x="435" y="-500.4" font-family="Verdana" font-size="7.00" fill="#000000">CalBestParamModel.OtherSolver</text>
<text text-anchor="middle" x="435" y="-492.4" font-family="Verdana" font-size="7.00" fill="#000000">calls: 24</text>
<text text-anchor="middle" x="435" y="-484.4" font-family="Verdana" font-size="7.00" fill="#000000">time: 0.655259s</text>
<text text-anchor="middle" x="435" y="-476.4" font-family="Verdana" font-size="7.00" fill="#000000">input:(function, x0, args,</text>
<text text-anchor="middle" x="435" y="-468.4" font-family="Verdana" font-size="7.00" fill="#000000">maxiter_calibration, tol)</text>
</g>
<!-- CalBestParamModel.CalBestParamResult&#45;&gt;CalBestParamModel.OtherSolver -->
<g id="edge14" class="edge">
<title>CalBestParamModel.CalBestParamResult&#45;&gt;CalBestParamModel.OtherSolver</title>
<path fill="none" stroke="#7775b2" d="M421.88,-553.71C424.15,-542.17 426.47,-530.36 428.52,-519.94"/>
<polygon fill="#7775b2" stroke="#7775b2" points="431.97,-520.54 430.46,-510.05 425.1,-519.19 431.97,-520.54"/>
<text text-anchor="middle" x="431.5" y="-530.4" font-family="Verdana" font-size="7.00" fill="#000000">24</text>
</g>
<!-- CalBestParamModel.BFGSSolver&#45;&gt;CalSABRFormulaVolatilityModel.TargetModel -->
<g id="edge15" class="edge">
<title>CalBestParamModel.BFGSSolver&#45;&gt;CalSABRFormulaVolatilityModel.TargetModel</title>
<path fill="none" stroke="#b233a1" d="M301.44,-461.79C317.71,-446.95 339.58,-427 360.35,-408.06"/>
<polygon fill="#b233a1" stroke="#b233a1" points="362.9,-410.47 367.93,-401.14 358.19,-405.3 362.9,-410.47"/>
<text text-anchor="middle" x="339" y="-438.4" font-family="Verdana" font-size="7.00" fill="#000000">2400</text>
</g>
<!-- CalBestParamModel.OtherSolver&#45;&gt;CalSABRFormulaVolatilityModel.TargetModel -->
<g id="edge19" class="edge">
<title>CalBestParamModel.OtherSolver&#45;&gt;CalSABRFormulaVolatilityModel.TargetModel</title>
<path fill="none" stroke="#b233a1" d="M433.11,-461.79C431.97,-447.8 430.46,-429.26 429,-411.31"/>
<polygon fill="#b233a1" stroke="#b233a1" points="432.47,-410.82 428.17,-401.14 425.49,-411.39 432.47,-410.82"/>
<text text-anchor="middle" x="442" y="-438.4" font-family="Verdana" font-size="7.00" fill="#000000">2400</text>
</g>
</g>
</svg>
