<?xml version="1.0" encoding="UTF-8" standalone="no"?>
<!DOCTYPE svg PUBLIC "-//W3C//DTD SVG 1.1//EN"
 "http://www.w3.org/Graphics/SVG/1.1/DTD/svg11.dtd">
<!-- Generated by graphviz version 3.0.0 (20220226.1711)
 -->
<!-- Title: G Pages: 1 -->
<svg width="1256pt" height="714pt"
 viewBox="0.00 0.00 1256.00 714.00" xmlns="http://www.w3.org/2000/svg" xmlns:xlink="http://www.w3.org/1999/xlink">
<g id="graph0" class="graph" transform="scale(1 1) rotate(0) translate(4 710)">
<title>G</title>
<polygon fill="white" stroke="transparent" points="-4,4 -4,-710 1252,-710 1252,4 -4,4"/>
<text text-anchor="middle" x="624" y="-6.4" font-family="Verdana" font-size="7.00" fill="#000000" fill-opacity="0.498039">Generated by Python Call Graph v1.1.3</text>
<g id="clust7" class="cluster">
<title>cluster_CalSABRFormulaVolatilityModel</title>
<polygon fill="none" stroke="#000000" stroke-width="2" stroke-opacity="0.800000" points="352,-24 352,-279 1240,-279 1240,-24 352,-24"/>
<text text-anchor="middle" x="796" y="-267" font-family="Verdana" font-size="10.00">CalSABRFormulaVolatilityModel</text>
</g>
<g id="clust2" class="cluster">
<title>cluster_PricingSABRAfterParamInterpolation</title>
<polygon fill="none" stroke="#000000" stroke-width="2" stroke-opacity="0.800000" points="313,-446 313,-601 505,-601 505,-446 313,-446"/>
<text text-anchor="middle" x="409" y="-589" font-family="Verdana" font-size="10.00">PricingSABRAfterParamInterpolation</text>
</g>
<g id="clust1" class="cluster">
<title>cluster___main__</title>
<polygon fill="none" stroke="#000000" stroke-width="2" stroke-opacity="0.800000" points="360,-627 360,-698 458,-698 458,-627 360,-627"/>
<text text-anchor="middle" x="409" y="-686" font-family="Verdana" font-size="10.00">__main__</text>
</g>
<g id="clust5" class="cluster">
<title>cluster_GetUISABRModel_Copy</title>
<polygon fill="none" stroke="#000000" stroke-width="2" stroke-opacity="0.800000" points="180,-168 180,-267 344,-267 344,-168 180,-168"/>
<text text-anchor="middle" x="262" y="-255" font-family="Verdana" font-size="10.00">GetUISABRModel_Copy</text>
</g>
<g id="clust3" class="cluster">
<title>cluster_SABRParamInterpolation</title>
<polygon fill="none" stroke="#000000" stroke-width="2" stroke-opacity="0.800000" points="182,-305 182,-420 342,-420 342,-305 182,-305"/>
<text text-anchor="middle" x="262" y="-408" font-family="Verdana" font-size="10.00">SABRParamInterpolation</text>
</g>
<g id="clust6" class="cluster">
<title>cluster_OptionPriceModel</title>
<polygon fill="none" stroke="#000000" stroke-width="2" stroke-opacity="0.800000" points="473,-317 473,-408 643,-408 643,-317 473,-317"/>
<text text-anchor="middle" x="558" y="-396" font-family="Verdana" font-size="10.00">OptionPriceModel</text>
</g>
<g id="clust4" class="cluster">
<title>cluster_GetUISABRModel</title>
<polygon fill="none" stroke="#000000" stroke-width="2" stroke-opacity="0.800000" points="8,-168 8,-267 172,-267 172,-168 8,-168"/>
<text text-anchor="middle" x="90" y="-255" font-family="Verdana" font-size="10.00">GetUISABRModel</text>
</g>
<!-- __main__ -->
<g id="node1" class="node">
<title>__main__</title>
<polygon fill="#9999e5" stroke="#9999e5" points="450,-671 368,-671 368,-635 450,-635 450,-671"/>
<text text-anchor="middle" x="409" y="-659.4" font-family="Verdana" font-size="7.00" fill="#000000">__main__</text>
<text text-anchor="middle" x="409" y="-651.4" font-family="Verdana" font-size="7.00" fill="#000000">calls: 1</text>
<text text-anchor="middle" x="409" y="-643.4" font-family="Verdana" font-size="7.00" fill="#000000">time: 0.000000s</text>
</g>
<!-- PricingSABRAfterParamInterpolation -->
<g id="node2" class="node">
<title>PricingSABRAfterParamInterpolation</title>
<polygon fill="#e50000" stroke="#e50000" points="487,-574 331,-574 331,-454 487,-454 487,-574"/>
<text text-anchor="middle" x="409" y="-564.4" font-family="Verdana" font-size="7.00" fill="#000000">PricingSABRAfterParamInterpolation</text>
<text text-anchor="middle" x="409" y="-556.4" font-family="Verdana" font-size="7.00" fill="#000000">calls: 1</text>
<text text-anchor="middle" x="409" y="-548.4" font-family="Verdana" font-size="7.00" fill="#000000">time: 0.010002s</text>
<text text-anchor="middle" x="409" y="-540.4" font-family="Verdana" font-size="7.00" fill="#000000">input:(alpha_begin, beta_begin,</text>
<text text-anchor="middle" x="409" y="-532.4" font-family="Verdana" font-size="7.00" fill="#000000">rho_begin, nu_begin, time,</text>
<text text-anchor="middle" x="409" y="-524.4" font-family="Verdana" font-size="7.00" fill="#000000">calibration_method, sabr_formula,</text>
<text text-anchor="middle" x="409" y="-516.4" font-family="Verdana" font-size="7.00" fill="#000000">option_type, exercise_time,</text>
<text text-anchor="middle" x="409" y="-508.4" font-family="Verdana" font-size="7.00" fill="#000000">forward_price, strike, market_vol,</text>
<text text-anchor="middle" x="409" y="-500.4" font-family="Verdana" font-size="7.00" fill="#000000">specal_time, specal_forward_price,</text>
<text text-anchor="middle" x="409" y="-492.4" font-family="Verdana" font-size="7.00" fill="#000000">risk_free_interest,</text>
<text text-anchor="middle" x="409" y="-484.4" font-family="Verdana" font-size="7.00" fill="#000000">minimal_time_step_count,</text>
<text text-anchor="middle" x="409" y="-476.4" font-family="Verdana" font-size="7.00" fill="#000000">underlying_step_count,</text>
<text text-anchor="middle" x="409" y="-468.4" font-family="Verdana" font-size="7.00" fill="#000000">variance_step_count,</text>
<text text-anchor="middle" x="409" y="-460.4" font-family="Verdana" font-size="7.00" fill="#000000">time_step_count_per_year)</text>
</g>
<!-- __main__&#45;&gt;PricingSABRAfterParamInterpolation -->
<g id="edge1" class="edge">
<title>__main__&#45;&gt;PricingSABRAfterParamInterpolation</title>
<path fill="none" stroke="#b20000" d="M409,-634.93C409,-621.98 409,-603.25 409,-584.42"/>
<polygon fill="#b20000" stroke="#b20000" points="412.5,-584.3 409,-574.3 405.5,-584.3 412.5,-584.3"/>
<text text-anchor="middle" x="412" y="-611.4" font-family="Verdana" font-size="7.00" fill="#000000">1</text>
</g>
<!-- SABRParamInterpolation -->
<g id="node3" class="node">
<title>SABRParamInterpolation</title>
<polygon fill="#9999e5" stroke="#9999e5" points="334,-393 190,-393 190,-313 334,-313 334,-393"/>
<text text-anchor="middle" x="262" y="-383.4" font-family="Verdana" font-size="7.00" fill="#000000">SABRParamInterpolation</text>
<text text-anchor="middle" x="262" y="-375.4" font-family="Verdana" font-size="7.00" fill="#000000">calls: 1</text>
<text text-anchor="middle" x="262" y="-367.4" font-family="Verdana" font-size="7.00" fill="#000000">time: 0.000000s</text>
<text text-anchor="middle" x="262" y="-359.4" font-family="Verdana" font-size="7.00" fill="#000000">input:(alpha_begin, beta_begin,</text>
<text text-anchor="middle" x="262" y="-351.4" font-family="Verdana" font-size="7.00" fill="#000000">rho_begin, nu_begin, time,</text>
<text text-anchor="middle" x="262" y="-343.4" font-family="Verdana" font-size="7.00" fill="#000000">calibration_method, sabr_formula,</text>
<text text-anchor="middle" x="262" y="-335.4" font-family="Verdana" font-size="7.00" fill="#000000">option_type, exercise_time,</text>
<text text-anchor="middle" x="262" y="-327.4" font-family="Verdana" font-size="7.00" fill="#000000">forward_price, strike, market_vol,</text>
<text text-anchor="middle" x="262" y="-319.4" font-family="Verdana" font-size="7.00" fill="#000000">specal_time)</text>
</g>
<!-- PricingSABRAfterParamInterpolation&#45;&gt;SABRParamInterpolation -->
<g id="edge2" class="edge">
<title>PricingSABRAfterParamInterpolation&#45;&gt;SABRParamInterpolation</title>
<path fill="none" stroke="#7777b2" d="M354.26,-453.79C338.12,-436.34 320.69,-417.48 305.37,-400.91"/>
<polygon fill="#7777b2" stroke="#7777b2" points="307.85,-398.44 298.49,-393.47 302.71,-403.19 307.85,-398.44"/>
<text text-anchor="middle" x="338" y="-430.4" font-family="Verdana" font-size="7.00" fill="#000000">1</text>
</g>
<!-- OptionPriceModel.OptionPriceModel -->
<g id="node6" class="node">
<title>OptionPriceModel.OptionPriceModel</title>
<polygon fill="#9999e5" stroke="#9999e5" points="635,-381 481,-381 481,-325 635,-325 635,-381"/>
<text text-anchor="middle" x="558" y="-371.4" font-family="Verdana" font-size="7.00" fill="#000000">OptionPriceModel.OptionPriceModel</text>
<text text-anchor="middle" x="558" y="-363.4" font-family="Verdana" font-size="7.00" fill="#000000">calls: 1</text>
<text text-anchor="middle" x="558" y="-355.4" font-family="Verdana" font-size="7.00" fill="#000000">time: 0.000000s</text>
<text text-anchor="middle" x="558" y="-347.4" font-family="Verdana" font-size="7.00" fill="#000000">input:(option_type, exercise_time,</text>
<text text-anchor="middle" x="558" y="-339.4" font-family="Verdana" font-size="7.00" fill="#000000">time, forward_price, strike, vol,</text>
<text text-anchor="middle" x="558" y="-331.4" font-family="Verdana" font-size="7.00" fill="#000000">risk_free_interest)</text>
</g>
<!-- PricingSABRAfterParamInterpolation&#45;&gt;OptionPriceModel.OptionPriceModel -->
<g id="edge3" class="edge">
<title>PricingSABRAfterParamInterpolation&#45;&gt;OptionPriceModel.OptionPriceModel</title>
<path fill="none" stroke="#7777b2" d="M464.48,-453.79C485.08,-431.81 507.76,-407.61 525.62,-388.55"/>
<polygon fill="#7777b2" stroke="#7777b2" points="528.18,-390.94 532.47,-381.25 523.07,-386.15 528.18,-390.94"/>
<text text-anchor="middle" x="490" y="-430.4" font-family="Verdana" font-size="7.00" fill="#000000">1</text>
</g>
<!-- GetUISABRModel -->
<g id="node4" class="node">
<title>GetUISABRModel</title>
<polygon fill="#9999e5" stroke="#9999e5" points="164,-240 16,-240 16,-176 164,-176 164,-240"/>
<text text-anchor="middle" x="90" y="-230.4" font-family="Verdana" font-size="7.00" fill="#000000">GetUISABRModel</text>
<text text-anchor="middle" x="90" y="-222.4" font-family="Verdana" font-size="7.00" fill="#000000">calls: 1</text>
<text text-anchor="middle" x="90" y="-214.4" font-family="Verdana" font-size="7.00" fill="#000000">time: 0.000000s</text>
<text text-anchor="middle" x="90" y="-206.4" font-family="Verdana" font-size="7.00" fill="#000000">input:(calibration_method,</text>
<text text-anchor="middle" x="90" y="-198.4" font-family="Verdana" font-size="7.00" fill="#000000">sabr_formula, option_type,</text>
<text text-anchor="middle" x="90" y="-190.4" font-family="Verdana" font-size="7.00" fill="#000000">exercise_time, time, forward_price,</text>
<text text-anchor="middle" x="90" y="-182.4" font-family="Verdana" font-size="7.00" fill="#000000">strike, market_vol)</text>
</g>
<!-- SABRParamInterpolation&#45;&gt;GetUISABRModel -->
<g id="edge4" class="edge">
<title>SABRParamInterpolation&#45;&gt;GetUISABRModel</title>
<path fill="none" stroke="#7777b2" d="M215,-312.92C190.14,-292.26 159.76,-267 135.18,-246.56"/>
<polygon fill="#7777b2" stroke="#7777b2" points="137.34,-243.81 127.41,-240.11 132.87,-249.19 137.34,-243.81"/>
<text text-anchor="middle" x="194" y="-289.4" font-family="Verdana" font-size="7.00" fill="#000000">1</text>
</g>
<!-- GetUISABRModel_Copy -->
<g id="node5" class="node">
<title>GetUISABRModel_Copy</title>
<polygon fill="#9999e5" stroke="#9999e5" points="336,-240 188,-240 188,-176 336,-176 336,-240"/>
<text text-anchor="middle" x="262" y="-230.4" font-family="Verdana" font-size="7.00" fill="#000000">GetUISABRModel_Copy</text>
<text text-anchor="middle" x="262" y="-222.4" font-family="Verdana" font-size="7.00" fill="#000000">calls: 1</text>
<text text-anchor="middle" x="262" y="-214.4" font-family="Verdana" font-size="7.00" fill="#000000">time: 0.000000s</text>
<text text-anchor="middle" x="262" y="-206.4" font-family="Verdana" font-size="7.00" fill="#000000">input:(calibration_method,</text>
<text text-anchor="middle" x="262" y="-198.4" font-family="Verdana" font-size="7.00" fill="#000000">sabr_formula, option_type,</text>
<text text-anchor="middle" x="262" y="-190.4" font-family="Verdana" font-size="7.00" fill="#000000">exercise_time, time, forward_price,</text>
<text text-anchor="middle" x="262" y="-182.4" font-family="Verdana" font-size="7.00" fill="#000000">strike, market_vol)</text>
</g>
<!-- SABRParamInterpolation&#45;&gt;GetUISABRModel_Copy -->
<g id="edge5" class="edge">
<title>SABRParamInterpolation&#45;&gt;GetUISABRModel_Copy</title>
<path fill="none" stroke="#7777b2" d="M262,-312.92C262,-293.58 262,-270.21 262,-250.54"/>
<polygon fill="#7777b2" stroke="#7777b2" points="265.5,-250.34 262,-240.34 258.5,-250.34 265.5,-250.34"/>
<text text-anchor="middle" x="265" y="-289.4" font-family="Verdana" font-size="7.00" fill="#000000">1</text>
</g>
<!-- CalSABRFormulaVolatilityModel.CalVolatilityProcess -->
<g id="node7" class="node">
<title>CalSABRFormulaVolatilityModel.CalVolatilityProcess</title>
<polygon fill="#9999e5" stroke="#9999e5" points="790,-252 572,-252 572,-164 790,-164 790,-252"/>
<text text-anchor="middle" x="681" y="-242.4" font-family="Verdana" font-size="7.00" fill="#000000">CalSABRFormulaVolatilityModel.CalVolatilityProcess</text>
<text text-anchor="middle" x="681" y="-234.4" font-family="Verdana" font-size="7.00" fill="#000000">calls: 1</text>
<text text-anchor="middle" x="681" y="-226.4" font-family="Verdana" font-size="7.00" fill="#000000">time: 0.000000s</text>
<text text-anchor="middle" x="681" y="-218.4" font-family="Verdana" font-size="7.00" fill="#000000">input:(alpha_point, beta_point,</text>
<text text-anchor="middle" x="681" y="-210.4" font-family="Verdana" font-size="7.00" fill="#000000">rho_point, nu_point, time,</text>
<text text-anchor="middle" x="681" y="-202.4" font-family="Verdana" font-size="7.00" fill="#000000">forward_price, strike, sabr_formula,</text>
<text text-anchor="middle" x="681" y="-194.4" font-family="Verdana" font-size="7.00" fill="#000000">minimal_time_step_count,</text>
<text text-anchor="middle" x="681" y="-186.4" font-family="Verdana" font-size="7.00" fill="#000000">underlying_step_count,</text>
<text text-anchor="middle" x="681" y="-178.4" font-family="Verdana" font-size="7.00" fill="#000000">variance_step_count,</text>
<text text-anchor="middle" x="681" y="-170.4" font-family="Verdana" font-size="7.00" fill="#000000">time_step_count_per_year)</text>
</g>
<!-- OptionPriceModel.OptionPriceModel&#45;&gt;CalSABRFormulaVolatilityModel.CalVolatilityProcess -->
<g id="edge6" class="edge">
<title>OptionPriceModel.OptionPriceModel&#45;&gt;CalSABRFormulaVolatilityModel.CalVolatilityProcess</title>
<path fill="none" stroke="#7777b2" d="M581.42,-324.77C597.2,-306.43 618.48,-281.68 637.33,-259.78"/>
<polygon fill="#7777b2" stroke="#7777b2" points="640.01,-262.03 643.88,-252.16 634.7,-257.46 640.01,-262.03"/>
<text text-anchor="middle" x="615" y="-289.4" font-family="Verdana" font-size="7.00" fill="#000000">1</text>
</g>
<!-- CalSABRFormulaVolatilityModel.HaganModel -->
<g id="node8" class="node">
<title>CalSABRFormulaVolatilityModel.HaganModel</title>
<polygon fill="#9999e5" stroke="#9999e5" points="547.5,-104 360.5,-104 360.5,-48 547.5,-48 547.5,-104"/>
<text text-anchor="middle" x="454" y="-94.4" font-family="Verdana" font-size="7.00" fill="#000000">CalSABRFormulaVolatilityModel.HaganModel</text>
<text text-anchor="middle" x="454" y="-86.4" font-family="Verdana" font-size="7.00" fill="#000000">calls: 1</text>
<text text-anchor="middle" x="454" y="-78.4" font-family="Verdana" font-size="7.00" fill="#000000">time: 0.000000s</text>
<text text-anchor="middle" x="454" y="-70.4" font-family="Verdana" font-size="7.00" fill="#000000">input:(alpha_point, beta_point,</text>
<text text-anchor="middle" x="454" y="-62.4" font-family="Verdana" font-size="7.00" fill="#000000">rho_point, nu_point, time,</text>
<text text-anchor="middle" x="454" y="-54.4" font-family="Verdana" font-size="7.00" fill="#000000">forward_price, strike)</text>
</g>
<!-- CalSABRFormulaVolatilityModel.CalVolatilityProcess&#45;&gt;CalSABRFormulaVolatilityModel.HaganModel -->
<g id="edge7" class="edge">
<title>CalSABRFormulaVolatilityModel.CalVolatilityProcess&#45;&gt;CalSABRFormulaVolatilityModel.HaganModel</title>
<path fill="none" stroke="#7777b2" d="M605.73,-163.89C574.5,-146.01 538.9,-125.62 510.04,-109.09"/>
<polygon fill="#7777b2" stroke="#7777b2" points="511.72,-106.02 501.31,-104.09 508.24,-112.1 511.72,-106.02"/>
<text text-anchor="middle" x="577" y="-140.4" font-family="Verdana" font-size="7.00" fill="#000000">1</text>
</g>
<!-- CalSABRFormulaVolatilityModel.BetterExpansionsModel -->
<g id="node9" class="node">
<title>CalSABRFormulaVolatilityModel.BetterExpansionsModel</title>
<polygon fill="#9999e5" stroke="#9999e5" points="796,-104 566,-104 566,-48 796,-48 796,-104"/>
<text text-anchor="middle" x="681" y="-94.4" font-family="Verdana" font-size="7.00" fill="#000000">CalSABRFormulaVolatilityModel.BetterExpansionsModel</text>
<text text-anchor="middle" x="681" y="-86.4" font-family="Verdana" font-size="7.00" fill="#000000">calls: 1</text>
<text text-anchor="middle" x="681" y="-78.4" font-family="Verdana" font-size="7.00" fill="#000000">time: 0.000000s</text>
<text text-anchor="middle" x="681" y="-70.4" font-family="Verdana" font-size="7.00" fill="#000000">input:(alpha_point, beta_point,</text>
<text text-anchor="middle" x="681" y="-62.4" font-family="Verdana" font-size="7.00" fill="#000000">rho_point, nu_point, time,</text>
<text text-anchor="middle" x="681" y="-54.4" font-family="Verdana" font-size="7.00" fill="#000000">forward_price, strike)</text>
</g>
<!-- CalSABRFormulaVolatilityModel.CalVolatilityProcess&#45;&gt;CalSABRFormulaVolatilityModel.BetterExpansionsModel -->
<g id="edge8" class="edge">
<title>CalSABRFormulaVolatilityModel.CalVolatilityProcess&#45;&gt;CalSABRFormulaVolatilityModel.BetterExpansionsModel</title>
<path fill="none" stroke="#7777b2" d="M681,-163.71C681,-147.75 681,-129.81 681,-114.41"/>
<polygon fill="#7777b2" stroke="#7777b2" points="684.5,-114.21 681,-104.21 677.5,-114.21 684.5,-114.21"/>
<text text-anchor="middle" x="684" y="-140.4" font-family="Verdana" font-size="7.00" fill="#000000">1</text>
</g>
<!-- CalSABRFormulaVolatilityModel.PDEModel -->
<g id="node10" class="node">
<title>CalSABRFormulaVolatilityModel.PDEModel</title>
<polygon fill="#9999e5" stroke="#9999e5" points="993.5,-120 814.5,-120 814.5,-32 993.5,-32 993.5,-120"/>
<text text-anchor="middle" x="904" y="-110.4" font-family="Verdana" font-size="7.00" fill="#000000">CalSABRFormulaVolatilityModel.PDEModel</text>
<text text-anchor="middle" x="904" y="-102.4" font-family="Verdana" font-size="7.00" fill="#000000">calls: 1</text>
<text text-anchor="middle" x="904" y="-94.4" font-family="Verdana" font-size="7.00" fill="#000000">time: 0.000000s</text>
<text text-anchor="middle" x="904" y="-86.4" font-family="Verdana" font-size="7.00" fill="#000000">input:(alpha_point, beta_point,</text>
<text text-anchor="middle" x="904" y="-78.4" font-family="Verdana" font-size="7.00" fill="#000000">rho_point, nu_point, time,</text>
<text text-anchor="middle" x="904" y="-70.4" font-family="Verdana" font-size="7.00" fill="#000000">forward_price, strike,</text>
<text text-anchor="middle" x="904" y="-62.4" font-family="Verdana" font-size="7.00" fill="#000000">minimal_time_step_count,</text>
<text text-anchor="middle" x="904" y="-54.4" font-family="Verdana" font-size="7.00" fill="#000000">underlying_step_count,</text>
<text text-anchor="middle" x="904" y="-46.4" font-family="Verdana" font-size="7.00" fill="#000000">variance_step_count,</text>
<text text-anchor="middle" x="904" y="-38.4" font-family="Verdana" font-size="7.00" fill="#000000">time_step_count_per_year)</text>
</g>
<!-- CalSABRFormulaVolatilityModel.CalVolatilityProcess&#45;&gt;CalSABRFormulaVolatilityModel.PDEModel -->
<g id="edge9" class="edge">
<title>CalSABRFormulaVolatilityModel.CalVolatilityProcess&#45;&gt;CalSABRFormulaVolatilityModel.PDEModel</title>
<path fill="none" stroke="#7777b2" d="M754.95,-163.89C776.12,-151.55 799.34,-138.02 821.01,-125.38"/>
<polygon fill="#7777b2" stroke="#7777b2" points="823,-128.27 829.87,-120.21 819.47,-122.23 823,-128.27"/>
<text text-anchor="middle" x="802" y="-140.4" font-family="Verdana" font-size="7.00" fill="#000000">1</text>
</g>
<!-- CalSABRFormulaVolatilityModel.MixOrder2PDEModel -->
<g id="node11" class="node">
<title>CalSABRFormulaVolatilityModel.MixOrder2PDEModel</title>
<polygon fill="#9999e5" stroke="#9999e5" points="1232,-120 1012,-120 1012,-32 1232,-32 1232,-120"/>
<text text-anchor="middle" x="1122" y="-110.4" font-family="Verdana" font-size="7.00" fill="#000000">CalSABRFormulaVolatilityModel.MixOrder2PDEModel</text>
<text text-anchor="middle" x="1122" y="-102.4" font-family="Verdana" font-size="7.00" fill="#000000">calls: 1</text>
<text text-anchor="middle" x="1122" y="-94.4" font-family="Verdana" font-size="7.00" fill="#000000">time: 0.000000s</text>
<text text-anchor="middle" x="1122" y="-86.4" font-family="Verdana" font-size="7.00" fill="#000000">input:(alpha_point, beta_point,</text>
<text text-anchor="middle" x="1122" y="-78.4" font-family="Verdana" font-size="7.00" fill="#000000">rho_point, nu_point, time,</text>
<text text-anchor="middle" x="1122" y="-70.4" font-family="Verdana" font-size="7.00" fill="#000000">forward_price, strike,</text>
<text text-anchor="middle" x="1122" y="-62.4" font-family="Verdana" font-size="7.00" fill="#000000">minimal_time_step_count,</text>
<text text-anchor="middle" x="1122" y="-54.4" font-family="Verdana" font-size="7.00" fill="#000000">underlying_step_count,</text>
<text text-anchor="middle" x="1122" y="-46.4" font-family="Verdana" font-size="7.00" fill="#000000">variance_step_count,</text>
<text text-anchor="middle" x="1122" y="-38.4" font-family="Verdana" font-size="7.00" fill="#000000">time_step_count_per_year)</text>
</g>
<!-- CalSABRFormulaVolatilityModel.CalVolatilityProcess&#45;&gt;CalSABRFormulaVolatilityModel.MixOrder2PDEModel -->
<g id="edge10" class="edge">
<title>CalSABRFormulaVolatilityModel.CalVolatilityProcess&#45;&gt;CalSABRFormulaVolatilityModel.MixOrder2PDEModel</title>
<path fill="none" stroke="#7777b2" d="M790.09,-179.93C850.18,-164.44 926.19,-143.91 1002.15,-120.21"/>
<polygon fill="#7777b2" stroke="#7777b2" points="1003.4,-123.48 1011.89,-117.15 1001.3,-116.81 1003.4,-123.48"/>
<text text-anchor="middle" x="944" y="-140.4" font-family="Verdana" font-size="7.00" fill="#000000">1</text>
</g>
</g>
</svg>
