<?xml version="1.0" encoding="UTF-8" standalone="no"?>
<!DOCTYPE svg PUBLIC "-//W3C//DTD SVG 1.1//EN"
 "http://www.w3.org/Graphics/SVG/1.1/DTD/svg11.dtd">
<!-- Generated by graphviz version 3.0.0 (20220226.1711)
 -->
<!-- Title: G Pages: 1 -->
<svg width="1090pt" height="549pt"
 viewBox="0.00 0.00 1090.00 549.00" xmlns="http://www.w3.org/2000/svg" xmlns:xlink="http://www.w3.org/1999/xlink">
<g id="graph0" class="graph" transform="scale(1 1) rotate(0) translate(4 545)">
<title>G</title>
<polygon fill="white" stroke="transparent" points="-4,4 -4,-545 1086,-545 1086,4 -4,4"/>
<text text-anchor="middle" x="541" y="-6.4" font-family="Verdana" font-size="7.00" fill="#000000" fill-opacity="0.498039">Generated by Python Call Graph v1.1.3</text>
<g id="clust3" class="cluster">
<title>cluster_CalSABRFormulaVolatilityModel</title>
<polygon fill="none" stroke="#000000" stroke-width="2" stroke-opacity="0.800000" points="8,-24 8,-279 896,-279 896,-24 8,-24"/>
<text text-anchor="middle" x="452" y="-267" font-family="Verdana" font-size="10.00">CalSABRFormulaVolatilityModel</text>
</g>
<g id="clust1" class="cluster">
<title>cluster___main__</title>
<polygon fill="none" stroke="#000000" stroke-width="2" stroke-opacity="0.800000" points="775,-462 775,-533 873,-533 873,-462 775,-462"/>
<text text-anchor="middle" x="824" y="-521" font-family="Verdana" font-size="10.00">__main__</text>
</g>
<g id="clust2" class="cluster">
<title>cluster_SABRVegaModel</title>
<polygon fill="none" stroke="#000000" stroke-width="2" stroke-opacity="0.800000" points="742,-305 742,-436 906,-436 906,-305 742,-305"/>
<text text-anchor="middle" x="824" y="-424" font-family="Verdana" font-size="10.00">SABRVegaModel</text>
</g>
<g id="clust4" class="cluster">
<title>cluster_OptionPriceModel</title>
<polygon fill="none" stroke="#000000" stroke-width="2" stroke-opacity="0.800000" points="904,-172 904,-263 1074,-263 1074,-172 904,-172"/>
<text text-anchor="middle" x="989" y="-251" font-family="Verdana" font-size="10.00">OptionPriceModel</text>
</g>
<!-- __main__ -->
<g id="node1" class="node">
<title>__main__</title>
<polygon fill="#bfd2e5" stroke="#bfd2e5" points="865,-506 783,-506 783,-470 865,-470 865,-506"/>
<text text-anchor="middle" x="824" y="-494.4" font-family="Verdana" font-size="7.00" fill="#000000">__main__</text>
<text text-anchor="middle" x="824" y="-486.4" font-family="Verdana" font-size="7.00" fill="#000000">calls: 1</text>
<text text-anchor="middle" x="824" y="-478.4" font-family="Verdana" font-size="7.00" fill="#000000">time: 0.000000s</text>
</g>
<!-- SABRVegaModel -->
<g id="node2" class="node">
<title>SABRVegaModel</title>
<polygon fill="#e52685" stroke="#e52685" points="898,-409 750,-409 750,-313 898,-313 898,-409"/>
<text text-anchor="middle" x="824" y="-399.4" font-family="Verdana" font-size="7.00" fill="#000000">SABRVegaModel</text>
<text text-anchor="middle" x="824" y="-391.4" font-family="Verdana" font-size="7.00" fill="#000000">calls: 1</text>
<text text-anchor="middle" x="824" y="-383.4" font-family="Verdana" font-size="7.00" fill="#000000">time: 0.010623s</text>
<text text-anchor="middle" x="824" y="-375.4" font-family="Verdana" font-size="7.00" fill="#000000">input:(alpha, beta, rho, nu,</text>
<text text-anchor="middle" x="824" y="-367.4" font-family="Verdana" font-size="7.00" fill="#000000">sabr_formula, option_type,</text>
<text text-anchor="middle" x="824" y="-359.4" font-family="Verdana" font-size="7.00" fill="#000000">exercise_time, time, forward_price,</text>
<text text-anchor="middle" x="824" y="-351.4" font-family="Verdana" font-size="7.00" fill="#000000">strike, risk_free_interest,</text>
<text text-anchor="middle" x="824" y="-343.4" font-family="Verdana" font-size="7.00" fill="#000000">epsilon, minimal_time_step_count,</text>
<text text-anchor="middle" x="824" y="-335.4" font-family="Verdana" font-size="7.00" fill="#000000">underlying_step_count,</text>
<text text-anchor="middle" x="824" y="-327.4" font-family="Verdana" font-size="7.00" fill="#000000">variance_step_count,</text>
<text text-anchor="middle" x="824" y="-319.4" font-family="Verdana" font-size="7.00" fill="#000000">time_step_count_per_year)</text>
</g>
<!-- __main__&#45;&gt;SABRVegaModel -->
<g id="edge1" class="edge">
<title>__main__&#45;&gt;SABRVegaModel</title>
<path fill="none" stroke="#b21d68" d="M824,-469.88C824,-456.68 824,-437.62 824,-419.18"/>
<polygon fill="#b21d68" stroke="#b21d68" points="827.5,-419.04 824,-409.04 820.5,-419.04 827.5,-419.04"/>
<text text-anchor="middle" x="827" y="-446.4" font-family="Verdana" font-size="7.00" fill="#000000">1</text>
</g>
<!-- CalSABRFormulaVolatilityModel.CalVolatilityProcess -->
<g id="node3" class="node">
<title>CalSABRFormulaVolatilityModel.CalVolatilityProcess</title>
<polygon fill="#bfd2e5" stroke="#bfd2e5" points="669,-252 451,-252 451,-164 669,-164 669,-252"/>
<text text-anchor="middle" x="560" y="-242.4" font-family="Verdana" font-size="7.00" fill="#000000">CalSABRFormulaVolatilityModel.CalVolatilityProcess</text>
<text text-anchor="middle" x="560" y="-234.4" font-family="Verdana" font-size="7.00" fill="#000000">calls: 1</text>
<text text-anchor="middle" x="560" y="-226.4" font-family="Verdana" font-size="7.00" fill="#000000">time: 0.000000s</text>
<text text-anchor="middle" x="560" y="-218.4" font-family="Verdana" font-size="7.00" fill="#000000">input:(alpha_point, beta_point,</text>
<text text-anchor="middle" x="560" y="-210.4" font-family="Verdana" font-size="7.00" fill="#000000">rho_point, nu_point, time,</text>
<text text-anchor="middle" x="560" y="-202.4" font-family="Verdana" font-size="7.00" fill="#000000">forward_price, strike, sabr_formula,</text>
<text text-anchor="middle" x="560" y="-194.4" font-family="Verdana" font-size="7.00" fill="#000000">minimal_time_step_count,</text>
<text text-anchor="middle" x="560" y="-186.4" font-family="Verdana" font-size="7.00" fill="#000000">underlying_step_count,</text>
<text text-anchor="middle" x="560" y="-178.4" font-family="Verdana" font-size="7.00" fill="#000000">variance_step_count,</text>
<text text-anchor="middle" x="560" y="-170.4" font-family="Verdana" font-size="7.00" fill="#000000">time_step_count_per_year)</text>
</g>
<!-- SABRVegaModel&#45;&gt;CalSABRFormulaVolatilityModel.CalVolatilityProcess -->
<g id="edge2" class="edge">
<title>SABRVegaModel&#45;&gt;CalSABRFormulaVolatilityModel.CalVolatilityProcess</title>
<path fill="none" stroke="#94a3b2" d="M749.76,-317.54C717,-298.8 678.33,-276.68 644.47,-257.31"/>
<polygon fill="#94a3b2" stroke="#94a3b2" points="645.93,-254.12 635.52,-252.19 642.46,-260.2 645.93,-254.12"/>
<text text-anchor="middle" x="710" y="-289.4" font-family="Verdana" font-size="7.00" fill="#000000">1</text>
</g>
<!-- OptionPriceModel.OptionPriceModel -->
<g id="node8" class="node">
<title>OptionPriceModel.OptionPriceModel</title>
<polygon fill="#e50000" stroke="#e50000" points="1066,-236 912,-236 912,-180 1066,-180 1066,-236"/>
<text text-anchor="middle" x="989" y="-226.4" font-family="Verdana" font-size="7.00" fill="#000000">OptionPriceModel.OptionPriceModel</text>
<text text-anchor="middle" x="989" y="-218.4" font-family="Verdana" font-size="7.00" fill="#000000">calls: 2</text>
<text text-anchor="middle" x="989" y="-210.4" font-family="Verdana" font-size="7.00" fill="#000000">time: 0.010623s</text>
<text text-anchor="middle" x="989" y="-202.4" font-family="Verdana" font-size="7.00" fill="#000000">input:(option_type, exercise_time,</text>
<text text-anchor="middle" x="989" y="-194.4" font-family="Verdana" font-size="7.00" fill="#000000">time, forward_price, strike, vol,</text>
<text text-anchor="middle" x="989" y="-186.4" font-family="Verdana" font-size="7.00" fill="#000000">risk_free_interest)</text>
</g>
<!-- SABRVegaModel&#45;&gt;OptionPriceModel.OptionPriceModel -->
<g id="edge3" class="edge">
<title>SABRVegaModel&#45;&gt;OptionPriceModel.OptionPriceModel</title>
<path fill="none" stroke="#b20000" d="M875.75,-312.64C900.27,-290.2 929.02,-263.89 951.41,-243.4"/>
<polygon fill="#b20000" stroke="#b20000" points="954.04,-245.74 959.05,-236.41 949.31,-240.58 954.04,-245.74"/>
<text text-anchor="middle" x="904" y="-289.4" font-family="Verdana" font-size="7.00" fill="#000000">2</text>
</g>
<!-- CalSABRFormulaVolatilityModel.HaganModel -->
<g id="node4" class="node">
<title>CalSABRFormulaVolatilityModel.HaganModel</title>
<polygon fill="#bfd2e5" stroke="#bfd2e5" points="203.5,-104 16.5,-104 16.5,-48 203.5,-48 203.5,-104"/>
<text text-anchor="middle" x="110" y="-94.4" font-family="Verdana" font-size="7.00" fill="#000000">CalSABRFormulaVolatilityModel.HaganModel</text>
<text text-anchor="middle" x="110" y="-86.4" font-family="Verdana" font-size="7.00" fill="#000000">calls: 1</text>
<text text-anchor="middle" x="110" y="-78.4" font-family="Verdana" font-size="7.00" fill="#000000">time: 0.000000s</text>
<text text-anchor="middle" x="110" y="-70.4" font-family="Verdana" font-size="7.00" fill="#000000">input:(alpha_point, beta_point,</text>
<text text-anchor="middle" x="110" y="-62.4" font-family="Verdana" font-size="7.00" fill="#000000">rho_point, nu_point, time,</text>
<text text-anchor="middle" x="110" y="-54.4" font-family="Verdana" font-size="7.00" fill="#000000">forward_price, strike)</text>
</g>
<!-- CalSABRFormulaVolatilityModel.CalVolatilityProcess&#45;&gt;CalSABRFormulaVolatilityModel.HaganModel -->
<g id="edge4" class="edge">
<title>CalSABRFormulaVolatilityModel.CalVolatilityProcess&#45;&gt;CalSABRFormulaVolatilityModel.HaganModel</title>
<path fill="none" stroke="#94a3b2" d="M450.95,-184.07C381.99,-168.49 291.4,-146.03 213,-120 202.26,-116.43 191.06,-112.26 180.17,-107.94"/>
<polygon fill="#94a3b2" stroke="#94a3b2" points="181.28,-104.61 170.7,-104.11 178.66,-111.1 181.28,-104.61"/>
<text text-anchor="middle" x="300" y="-140.4" font-family="Verdana" font-size="7.00" fill="#000000">1</text>
</g>
<!-- CalSABRFormulaVolatilityModel.BetterExpansionsModel -->
<g id="node5" class="node">
<title>CalSABRFormulaVolatilityModel.BetterExpansionsModel</title>
<polygon fill="#bfd2e5" stroke="#bfd2e5" points="452,-104 222,-104 222,-48 452,-48 452,-104"/>
<text text-anchor="middle" x="337" y="-94.4" font-family="Verdana" font-size="7.00" fill="#000000">CalSABRFormulaVolatilityModel.BetterExpansionsModel</text>
<text text-anchor="middle" x="337" y="-86.4" font-family="Verdana" font-size="7.00" fill="#000000">calls: 1</text>
<text text-anchor="middle" x="337" y="-78.4" font-family="Verdana" font-size="7.00" fill="#000000">time: 0.000000s</text>
<text text-anchor="middle" x="337" y="-70.4" font-family="Verdana" font-size="7.00" fill="#000000">input:(alpha_point, beta_point,</text>
<text text-anchor="middle" x="337" y="-62.4" font-family="Verdana" font-size="7.00" fill="#000000">rho_point, nu_point, time,</text>
<text text-anchor="middle" x="337" y="-54.4" font-family="Verdana" font-size="7.00" fill="#000000">forward_price, strike)</text>
</g>
<!-- CalSABRFormulaVolatilityModel.CalVolatilityProcess&#45;&gt;CalSABRFormulaVolatilityModel.BetterExpansionsModel -->
<g id="edge5" class="edge">
<title>CalSABRFormulaVolatilityModel.CalVolatilityProcess&#45;&gt;CalSABRFormulaVolatilityModel.BetterExpansionsModel</title>
<path fill="none" stroke="#94a3b2" d="M486.05,-163.89C455.51,-146.09 420.71,-125.8 392.42,-109.31"/>
<polygon fill="#94a3b2" stroke="#94a3b2" points="393.87,-106.1 383.47,-104.09 390.35,-112.15 393.87,-106.1"/>
<text text-anchor="middle" x="458" y="-140.4" font-family="Verdana" font-size="7.00" fill="#000000">1</text>
</g>
<!-- CalSABRFormulaVolatilityModel.PDEModel -->
<g id="node6" class="node">
<title>CalSABRFormulaVolatilityModel.PDEModel</title>
<polygon fill="#bfd2e5" stroke="#bfd2e5" points="649.5,-120 470.5,-120 470.5,-32 649.5,-32 649.5,-120"/>
<text text-anchor="middle" x="560" y="-110.4" font-family="Verdana" font-size="7.00" fill="#000000">CalSABRFormulaVolatilityModel.PDEModel</text>
<text text-anchor="middle" x="560" y="-102.4" font-family="Verdana" font-size="7.00" fill="#000000">calls: 1</text>
<text text-anchor="middle" x="560" y="-94.4" font-family="Verdana" font-size="7.00" fill="#000000">time: 0.000000s</text>
<text text-anchor="middle" x="560" y="-86.4" font-family="Verdana" font-size="7.00" fill="#000000">input:(alpha_point, beta_point,</text>
<text text-anchor="middle" x="560" y="-78.4" font-family="Verdana" font-size="7.00" fill="#000000">rho_point, nu_point, time,</text>
<text text-anchor="middle" x="560" y="-70.4" font-family="Verdana" font-size="7.00" fill="#000000">forward_price, strike,</text>
<text text-anchor="middle" x="560" y="-62.4" font-family="Verdana" font-size="7.00" fill="#000000">minimal_time_step_count,</text>
<text text-anchor="middle" x="560" y="-54.4" font-family="Verdana" font-size="7.00" fill="#000000">underlying_step_count,</text>
<text text-anchor="middle" x="560" y="-46.4" font-family="Verdana" font-size="7.00" fill="#000000">variance_step_count,</text>
<text text-anchor="middle" x="560" y="-38.4" font-family="Verdana" font-size="7.00" fill="#000000">time_step_count_per_year)</text>
</g>
<!-- CalSABRFormulaVolatilityModel.CalVolatilityProcess&#45;&gt;CalSABRFormulaVolatilityModel.PDEModel -->
<g id="edge6" class="edge">
<title>CalSABRFormulaVolatilityModel.CalVolatilityProcess&#45;&gt;CalSABRFormulaVolatilityModel.PDEModel</title>
<path fill="none" stroke="#94a3b2" d="M560,-163.71C560,-152.97 560,-141.33 560,-130.17"/>
<polygon fill="#94a3b2" stroke="#94a3b2" points="563.5,-130.1 560,-120.1 556.5,-130.1 563.5,-130.1"/>
<text text-anchor="middle" x="563" y="-140.4" font-family="Verdana" font-size="7.00" fill="#000000">1</text>
</g>
<!-- CalSABRFormulaVolatilityModel.MixOrder2PDEModel -->
<g id="node7" class="node">
<title>CalSABRFormulaVolatilityModel.MixOrder2PDEModel</title>
<polygon fill="#bfd2e5" stroke="#bfd2e5" points="888,-120 668,-120 668,-32 888,-32 888,-120"/>
<text text-anchor="middle" x="778" y="-110.4" font-family="Verdana" font-size="7.00" fill="#000000">CalSABRFormulaVolatilityModel.MixOrder2PDEModel</text>
<text text-anchor="middle" x="778" y="-102.4" font-family="Verdana" font-size="7.00" fill="#000000">calls: 1</text>
<text text-anchor="middle" x="778" y="-94.4" font-family="Verdana" font-size="7.00" fill="#000000">time: 0.000000s</text>
<text text-anchor="middle" x="778" y="-86.4" font-family="Verdana" font-size="7.00" fill="#000000">input:(alpha_point, beta_point,</text>
<text text-anchor="middle" x="778" y="-78.4" font-family="Verdana" font-size="7.00" fill="#000000">rho_point, nu_point, time,</text>
<text text-anchor="middle" x="778" y="-70.4" font-family="Verdana" font-size="7.00" fill="#000000">forward_price, strike,</text>
<text text-anchor="middle" x="778" y="-62.4" font-family="Verdana" font-size="7.00" fill="#000000">minimal_time_step_count,</text>
<text text-anchor="middle" x="778" y="-54.4" font-family="Verdana" font-size="7.00" fill="#000000">underlying_step_count,</text>
<text text-anchor="middle" x="778" y="-46.4" font-family="Verdana" font-size="7.00" fill="#000000">variance_step_count,</text>
<text text-anchor="middle" x="778" y="-38.4" font-family="Verdana" font-size="7.00" fill="#000000">time_step_count_per_year)</text>
</g>
<!-- CalSABRFormulaVolatilityModel.CalVolatilityProcess&#45;&gt;CalSABRFormulaVolatilityModel.MixOrder2PDEModel -->
<g id="edge7" class="edge">
<title>CalSABRFormulaVolatilityModel.CalVolatilityProcess&#45;&gt;CalSABRFormulaVolatilityModel.MixOrder2PDEModel</title>
<path fill="none" stroke="#94a3b2" d="M632.29,-163.89C652.99,-151.55 675.68,-138.02 696.87,-125.38"/>
<polygon fill="#94a3b2" stroke="#94a3b2" points="698.74,-128.34 705.54,-120.21 695.15,-122.33 698.74,-128.34"/>
<text text-anchor="middle" x="678" y="-140.4" font-family="Verdana" font-size="7.00" fill="#000000">1</text>
</g>
</g>
</svg>
